<?xml version="1.0" encoding="utf-8"?>
<!-- Generator: Adobe Illustrator 19.2.1, SVG Export Plug-In . SVG Version: 6.00 Build 0)  -->
<svg version="1.1" id="Слой_1" xmlns="http://www.w3.org/2000/svg" xmlns:xlink="http://www.w3.org/1999/xlink" x="0px" y="0px"
	 viewBox="0 0 48 48" style="enable-background:new 0 0 48 48;" xml:space="preserve">
<style type="text/css">
	.st0{fill:#FFFFFF;}
</style>
<path class="st0" d="M22,42.8h-6c-4.8,0-8.8-3.9-8.8-8.8V20c0-0.4,0.3-0.8,0.8-0.8s0.8,0.3,0.8,0.8v14c0,4,3.3,7.3,7.3,7.3h6
	c4,0,7.3-3.3,7.3-7.3V24c0-0.4,0.3-0.8,0.8-0.8s0.8,0.3,0.8,0.8v10C30.8,38.8,26.8,42.8,22,42.8z"/>
<path class="st0" d="M32,42.8h-6c-4.8,0-8.8-3.9-8.8-8.8V20c0-0.4,0.3-0.8,0.8-0.8s0.8,0.3,0.8,0.8v14c0,4,3.3,7.3,7.3,7.3h6
	c4,0,7.3-3.3,7.3-7.3V24c0-0.4,0.3-0.8,0.8-0.8s0.8,0.3,0.8,0.8v10C40.8,38.8,36.8,42.8,32,42.8z"/>
<path class="st0" d="M18,20.7H8c-1.5,0-2.8-1.2-2.8-2.8v-4c0-1.5,1.2-2.8,2.8-2.8h10c1.5,0,2.8,1.2,2.8,2.8v4
	C20.7,19.5,19.5,20.7,18,20.7z M8,12.7c-0.7,0-1.3,0.6-1.3,1.3v4c0,0.7,0.6,1.3,1.3,1.3h10c0.7,0,1.3-0.6,1.3-1.3v-4
	c0-0.7-0.6-1.3-1.3-1.3H8z"/>
<path class="st0" d="M18,12.7H8c-0.4,0-0.8-0.3-0.8-0.8V8c0-1.5,1.2-2.8,2.8-2.8h6c1.5,0,2.8,1.2,2.8,2.8v4
	C18.7,12.4,18.4,12.7,18,12.7z M8.7,11.2h8.5V8c0-0.7-0.6-1.3-1.3-1.3h-6C9.3,6.7,8.7,7.3,8.7,8V11.2z"/>
<path class="st0" d="M40,24.8H30c-1.5,0-2.8-1.2-2.8-2.8v-4c0-1.5,1.2-2.8,2.8-2.8h10c1.5,0,2.8,1.2,2.8,2.8v4
	C42.8,23.5,41.5,24.8,40,24.8z M30,16.7c-0.7,0-1.3,0.6-1.3,1.3v4c0,0.7,0.6,1.3,1.3,1.3h10c0.7,0,1.3-0.6,1.3-1.3v-4
	c0-0.7-0.6-1.3-1.3-1.3H30z"/>
<path class="st0" d="M40,16.7H30c-0.4,0-0.8-0.3-0.8-0.8v-4c0-1.5,1.2-2.8,2.8-2.8h6c1.5,0,2.8,1.2,2.8,2.8v4
	C40.8,16.4,40.4,16.7,40,16.7z M30.8,15.2h8.5V12c0-0.7-0.6-1.3-1.3-1.3h-6c-0.7,0-1.3,0.6-1.3,1.3V15.2z"/>
</svg>
