<?xml version="1.0" encoding="utf-8"?>
<!-- Generator: Adobe Illustrator 19.2.1, SVG Export Plug-In . SVG Version: 6.00 Build 0)  -->
<svg version="1.1" id="Слой_1" xmlns="http://www.w3.org/2000/svg" xmlns:xlink="http://www.w3.org/1999/xlink" x="0px" y="0px"
	 viewBox="0 0 48 48" style="enable-background:new 0 0 48 48;" xml:space="preserve">
<style type="text/css">
	.st0{fill:#FFFFFF;}
</style>
<path class="st0" d="M24,36.7c-3.3,0-6.5-1.2-9-3.7c0,0,0,0,0,0c-5-5-5-13.1,0-18c5-5,13.1-5,18,0c5,5,5,13.1,0,18
	C30.5,35.5,27.3,36.7,24,36.7z M16.1,32c4.4,4.4,11.5,4.4,15.9,0c4.4-4.4,4.4-11.5,0-15.9c-4.4-4.4-11.5-4.4-15.9,0
	C11.7,20.4,11.7,27.6,16.1,32C16,32,16.1,32,16.1,32z"/>
<path class="st0" d="M24,28.8c-2.6,0-4.8-2.1-4.8-4.8s2.1-4.8,4.8-4.8s4.8,2.1,4.8,4.8S26.6,28.8,24,28.8z M24,20.8
	c-1.8,0-3.3,1.5-3.3,3.3s1.5,3.3,3.3,3.3s3.3-1.5,3.3-3.3S25.8,20.8,24,20.8z"/>
<path class="st0" d="M28,36.1c-0.4,0-0.8-0.3-0.8-0.8V24c0-0.4,0.3-0.8,0.8-0.8s0.8,0.3,0.8,0.8v11.3C28.8,35.7,28.4,36.1,28,36.1z"
	/>
<path class="st0" d="M20,24.8c-0.4,0-0.8-0.3-0.8-0.8V12.7c0-0.4,0.3-0.8,0.8-0.8s0.8,0.3,0.8,0.8V24C20.8,24.4,20.4,24.8,20,24.8z"
	/>
<path class="st0" d="M35.8,26.9c-0.1,0-0.3,0-0.4-0.1l-9.8-5.7c-0.4-0.2-0.5-0.7-0.3-1c0.2-0.4,0.7-0.5,1-0.3l9.8,5.7
	c0.4,0.2,0.5,0.7,0.3,1C36.3,26.8,36.1,26.9,35.8,26.9z"/>
<path class="st0" d="M22,28.2c-0.1,0-0.3,0-0.4-0.1l-9.8-5.7c-0.4-0.2-0.5-0.7-0.3-1c0.2-0.4,0.7-0.5,1-0.3l9.8,5.7
	c0.4,0.2,0.5,0.7,0.3,1C22.5,28.1,22.3,28.2,22,28.2z"/>
<path class="st0" d="M22,21.3c-0.3,0-0.5-0.1-0.6-0.4c-0.2-0.4-0.1-0.8,0.3-1l9.8-5.7c0.4-0.2,0.8-0.1,1,0.3c0.2,0.4,0.1,0.8-0.3,1
	l-9.8,5.7C22.3,21.2,22.1,21.3,22,21.3z"/>
<path class="st0" d="M16.2,33.9c-0.3,0-0.5-0.1-0.6-0.4c-0.2-0.4-0.1-0.8,0.3-1l9.8-5.7c0.4-0.2,0.8-0.1,1,0.3
	c0.2,0.4,0.1,0.8-0.3,1l-9.8,5.7C16.5,33.8,16.3,33.9,16.2,33.9z"/>
<path class="st0" d="M12,36.9c-0.3,0-0.6-0.2-0.8-0.5c-0.1-0.3-0.1-0.7,0.2-0.9c0.3-0.2,0.6-0.3,0.9-0.2c0.3,0.1,0.5,0.4,0.5,0.8
	c0,0.2-0.1,0.5-0.3,0.6C12.4,36.8,12.2,36.9,12,36.9z M11.3,36.1c0,0.3,0.2,0.5,0.4,0.6c0.3,0.1,0.5,0,0.7-0.1
	c0.2-0.2,0.3-0.5,0.2-0.7c-0.1-0.2-0.3-0.4-0.6-0.4v0.8l-0.5-0.6C11.4,35.7,11.3,35.9,11.3,36.1z"/>
<path class="st0" d="M36,12.9c-0.1,0-0.2,0-0.3-0.1c-0.3-0.1-0.5-0.4-0.5-0.8c0-0.2,0.1-0.5,0.3-0.6c0.1-0.1,0.4-0.2,0.6-0.2
	c0.3,0,0.7,0.2,0.8,0.5c0.1,0.3,0.1,0.7-0.2,0.9C36.4,12.8,36.2,12.9,36,12.9z M36,11.4c-0.2,0-0.3,0.1-0.5,0.2
	c-0.2,0.2-0.2,0.5-0.2,0.7c0.1,0.3,0.3,0.4,0.6,0.4V12l0.5,0.5c0.1-0.1,0.2-0.3,0.2-0.5c0-0.3-0.2-0.5-0.4-0.6
	C36.2,11.4,36.1,11.4,36,11.4z"/>
<path class="st0" d="M36,36.9c-0.5,0-0.8-0.4-0.8-0.8s0.4-0.8,0.8-0.8c0.2,0,0.5,0.1,0.6,0.3c0.1,0.1,0.2,0.4,0.2,0.6
	C36.8,36.6,36.5,36.9,36,36.9z M36,36.8L36,36.8L36,36.8z M36,35.4c-0.4,0-0.7,0.3-0.7,0.7h0.8l-0.6,0.5c0.1,0.1,0.3,0.2,0.5,0.2
	c0.4,0,0.7-0.3,0.7-0.7S36.4,35.4,36,35.4z"/>
<path class="st0" d="M12,12.9c-0.1,0-0.2,0-0.3-0.1c-0.1,0-0.2-0.1-0.3-0.2c-0.2-0.2-0.2-0.4-0.2-0.6c0-0.4,0.4-0.8,0.8-0.8
	s0.8,0.4,0.8,0.8S12.5,12.9,12,12.9z M12,11.4C12,11.4,12,11.4,12,11.4C12,11.4,12,11.4,12,11.4z"/>
<path class="st0" d="M38,42.8H10c-2.6,0-4.8-2.1-4.8-4.8V10c0-2.6,2.1-4.8,4.8-4.8h28c2.6,0,4.8,2.1,4.8,4.8v28
	C42.8,40.6,40.6,42.8,38,42.8z M10,6.8c-1.8,0-3.3,1.5-3.3,3.3v28c0,1.8,1.5,3.3,3.3,3.3h28c1.8,0,3.3-1.5,3.3-3.3V10
	c0-1.8-1.5-3.3-3.3-3.3H10z"/>
</svg>
