<svg  xmlns="http://www.w3.org/2000/svg" viewBox="0 0 48 48">
<path d="M19,29.8c-3.2,0-5.8-2.6-5.8-5.8c0-3.2,2.6-5.8,5.8-5.8s5.8,2.6,5.8,5.8C24.8,27.2,22.2,29.8,19,29.8z M19,19.8c-2.3,0-4.3,1.9-4.3,4.3c0,2.3,1.9,4.3,4.3,4.3s4.3-1.9,4.3-4.3C23.3,21.7,21.3,19.8,19,19.8z"/>
<path d="M37.3,34.8H9c-0.4,0-0.8-0.3-0.8-0.8V14c0-0.4,0.3-0.8,0.8-0.8h28.3c2.3,0,4.1,1.8,4.1,4.1v13.3C41.4,32.9,39.6,34.8,37.3,34.8z M9.8,33.3h27.6c1.4,0,2.6-1.2,2.6-2.6V17.3c0-1.4-1.2-2.6-2.6-2.6H9.8V33.3z"/>
<path d="M34,39.8H17.3c-1.3,0-2.4-1.1-2.4-2.4V34c0-0.4,0.3-0.8,0.8-0.8h20c0.4,0,0.8,0.3,0.8,0.8v3.3C36.4,38.7,35.3,39.8,34,39.8z M16.4,34.8v2.6c0,0.5,0.4,0.9,0.9,0.9H34c0.5,0,0.9-0.4,0.9-0.9v-2.6H16.4z"/>
<path d="M9,39.8c-0.4,0-0.8-0.3-0.8-0.8V10.7c0-0.5-0.4-0.9-0.9-0.9H5.7C5.3,9.8,4.9,9.4,4.9,9s0.3-0.8,0.8-0.8h1.7c1.3,0,2.4,1.1,2.4,2.4V39C9.8,39.4,9.4,39.8,9,39.8z"/>
<path d="M35.7,27.3H29c-0.4,0-0.8-0.3-0.8-0.8s0.3-0.8,0.8-0.8h6.7c0.4,0,0.8,0.3,0.8,0.8S36.1,27.3,35.7,27.3z"/>
<path d="M35.7,22.3H29c-0.4,0-0.8-0.3-0.8-0.8s0.3-0.8,0.8-0.8h6.7c0.4,0,0.8,0.3,0.8,0.8S36.1,22.3,35.7,22.3z"/>
</svg>
