<?xml version="1.0" encoding="utf-8"?>
<!-- Generator: Adobe Illustrator 19.2.1, SVG Export Plug-In . SVG Version: 6.00 Build 0)  -->
<svg version="1.1" id="Слой_1" xmlns="http://www.w3.org/2000/svg" xmlns:xlink="http://www.w3.org/1999/xlink" x="0px" y="0px"
	 viewBox="0 0 48 48" style="enable-background:new 0 0 48 48;" xml:space="preserve">
<style type="text/css">
	.st0{fill:#FFFFFF;}
</style>
<path class="st0" d="M24,34.3c-10.5,0-18.8-4.3-18.8-9.8c0-0.4,0.3-0.8,0.8-0.8s0.8,0.3,0.8,0.8c0,4.5,7.9,8.3,17.3,8.3
	c0.4,0,0.8,0.3,0.8,0.8S24.4,34.3,24,34.3z"/>
<path class="st0" d="M34,32.7c-0.3,0-0.6-0.2-0.7-0.5c0-0.1,0-0.2,0-0.2c0-0.3,0.2-0.6,0.5-0.7c4.7-1.6,7.5-4.1,7.5-6.8
	c0-0.4,0.3-0.8,0.8-0.8s0.8,0.3,0.8,0.8c0,3.3-3.2,6.4-8.5,8.2C34.2,32.7,34.1,32.7,34,32.7z"/>
<path class="st0" d="M26,34.3h-2c-10.5,0-18.8-4.3-18.8-9.8c0-0.4,0.3-0.8,0.8-0.8s0.8,0.3,0.8,0.8c0,4.5,7.9,8.3,17.3,8.3h2
	c0.4,0,0.8,0.3,0.8,0.8S26.4,34.3,26,34.3z"/>
<path class="st0" d="M21.5,38.7c-0.2,0-0.4-0.1-0.5-0.2c-0.3-0.3-0.3-0.8,0-1.1l4-4l-4-4c-0.3-0.3-0.3-0.8,0-1.1s0.8-0.3,1.1,0
	l4.5,4.5c0.1,0.1,0.2,0.3,0.2,0.5s-0.1,0.4-0.2,0.5L22,38.5C21.9,38.7,21.7,38.7,21.5,38.7z"/>
<path class="st0" d="M42,25.3c-0.4,0-0.8-0.3-0.8-0.8c0-3.4-4.6-6.5-11.4-7.7c-0.4-0.1-0.7-0.5-0.6-0.9c0.1-0.4,0.5-0.7,0.9-0.6
	c7.7,1.4,12.6,5,12.6,9.2C42.8,24.9,42.4,25.3,42,25.3z"/>
<path class="st0" d="M6,25.3c-0.4,0-0.8-0.3-0.8-0.8c0-4.2,5-7.9,12.6-9.2c0.4-0.1,0.8,0.2,0.9,0.6c0.1,0.4-0.2,0.8-0.6,0.9
	C11.3,18,6.8,21.1,6.8,24.5C6.8,24.9,6.4,25.3,6,25.3z"/>
<path class="st0" d="M24,11c-0.6,0-1.1-0.5-1.1-1s0.5-1.1,1.1-1.1s1,0.5,1,1.1S24.6,11,24,11z M24,9.5c-0.2,0-0.5,0.2-0.5,0.5
	c0,0.2,0.2,0.4,0.5,0.4c0.2,0,0.5-0.2,0.5-0.4C24.4,9.8,24.2,9.5,24,9.5z"/>
<path class="st0" d="M24,17c-0.6,0-1.1-0.5-1.1-1s0.5-1.1,1.1-1.1s1,0.5,1,1.1S24.6,17,24,17z M24,15.5c-0.2,0-0.5,0.2-0.5,0.5
	c0,0.2,0.2,0.4,0.5,0.4c0.2,0,0.5-0.2,0.5-0.4C24.4,15.8,24.2,15.5,24,15.5z"/>
<path class="st0" d="M24,23c-0.6,0-1-0.5-1-1s0.5-1.1,1-1.1c0.6,0,1.1,0.5,1.1,1.1S24.6,23,24,23z M24,21.5c-0.2,0-0.4,0.2-0.4,0.5
	c0,0.2,0.2,0.4,0.4,0.4c0.2,0,0.5-0.2,0.5-0.4C24.4,21.8,24.2,21.5,24,21.5z"/>
</svg>
