<?xml version="1.0" encoding="utf-8"?>
<!-- Generator: Adobe Illustrator 19.2.1, SVG Export Plug-In . SVG Version: 6.00 Build 0)  -->
<svg version="1.1" id="Слой_1" xmlns="http://www.w3.org/2000/svg" xmlns:xlink="http://www.w3.org/1999/xlink" x="0px" y="0px"
	 viewBox="0 0 48 48" style="enable-background:new 0 0 48 48;" xml:space="preserve">
<style type="text/css">
	.st0{fill:#FFFFFF;}
</style>
<path class="st0" d="M29.7,26.8H19.6c-0.4,0-0.7-0.3-0.7-0.6l-1.4-7c0,0,0,0,0-0.1l-0.5-2.4H15c-0.4,0-0.8-0.3-0.8-0.8
	s0.3-0.8,0.8-0.8h2.5c0.4,0,0.7,0.3,0.7,0.6l0.5,2.4H31c0.2,0,0.4,0.1,0.6,0.3c0.1,0.2,0.2,0.4,0.2,0.6l-1.4,7
	C30.3,26.5,30,26.8,29.7,26.8z M20.2,25.3H29l1.1-5.5H19.1L20.2,25.3z"/>
<path class="st0" d="M28.6,31.8C28.6,31.8,28.6,31.8,28.6,31.8c-0.2,0-0.4-0.1-0.6-0.3c-0.3-0.3-0.3-0.9,0-1.2
	c0.3-0.3,0.9-0.3,1.2,0c0,0,0,0,0,0c0.3,0.3,0.3,0.9,0,1.2C29.1,31.6,28.8,31.8,28.6,31.8z M28.7,30.8l-0.5,0.5
	c0.3,0.2,0.7,0.2,0.9,0c0.3-0.3,0.3-0.7,0-0.9L28.7,30.8z M28.6,30.3c-0.2,0-0.3,0.1-0.5,0.2c-0.3,0.3-0.3,0.7,0,0.9l0.4-0.4
	L28.6,30.3C28.6,30.3,28.6,30.3,28.6,30.3z"/>
<path class="st0" d="M20.6,31.8c-0.2,0-0.4-0.1-0.6-0.2c-0.3-0.3-0.3-0.9,0-1.2c0.3-0.3,0.9-0.3,1.2,0c0,0,0,0,0,0
	c0.3,0.3,0.3,0.9,0,1.2C21,31.7,20.8,31.8,20.6,31.8z M20.6,30.8l-0.5,0.5c0.3,0.2,0.7,0.2,0.9,0c0.3-0.3,0.3-0.7,0-0.9
	c-0.3-0.3-0.7-0.3-0.9,0c-0.3,0.3-0.3,0.7,0,0.9L20.6,30.8z"/>
<path class="st0" d="M24,42.7c-1.2,0-2.3-0.2-3.4-0.6C12,38.9,6.3,30.6,6.3,21.5v-7.5c0-2.1,1.3-3.9,3.3-4.5l13-4.1
	c0.9-0.3,1.9-0.3,2.8,0l13,4.1c2,0.6,3.3,2.4,3.3,4.5v7.4c0,9.1-5.7,17.4-14.3,20.6C26.3,42.5,25.2,42.7,24,42.7z M24,6.7
	c-0.3,0-0.7,0-1,0.1L10,11c-1.4,0.4-2.3,1.7-2.3,3.1v7.5c0,8.5,5.3,16.2,13.3,19.2c1.9,0.7,4,0.7,5.8,0c8-3,13.4-10.7,13.4-19.2
	v-7.4c0-1.4-0.9-2.7-2.3-3.1L25,6.9C24.7,6.8,24.3,6.7,24,6.7z"/>
</svg>
