<?xml version="1.0" encoding="utf-8"?>
<!-- Generator: Adobe Illustrator 19.2.1, SVG Export Plug-In . SVG Version: 6.00 Build 0)  -->
<svg version="1.1" id="Слой_1" xmlns="http://www.w3.org/2000/svg" xmlns:xlink="http://www.w3.org/1999/xlink" x="0px" y="0px"
	 viewBox="0 0 48 48" style="enable-background:new 0 0 48 48;" xml:space="preserve">
<style type="text/css">
	.st0{fill:#FFFFFF;}
</style>
<path class="st0" d="M38,42.8H10c-1.3,0-2.5-0.5-3.4-1.4c-0.9-0.9-1.4-2.1-1.4-3.4v-6c0-1.3,0.5-2.5,1.4-3.4
	c0.9-0.9,2.1-1.4,3.4-1.4c0,0,0,0,0,0h28c0,0,0,0,0,0c1.3,0,2.5,0.5,3.4,1.4c0.9,0.9,1.4,2.1,1.4,3.4v6c0,1.3-0.5,2.5-1.4,3.4
	C40.5,42.3,39.3,42.8,38,42.8z M10,28.8c-0.9,0-1.7,0.3-2.3,1c-0.6,0.6-1,1.4-1,2.3v6c0,0.9,0.3,1.7,1,2.3c0.6,0.6,1.4,1,2.3,1h28
	c0.9,0,1.7-0.3,2.3-1c0.6-0.6,1-1.4,1-2.3v-6c0-0.9-0.3-1.7-1-2.3c-0.6-0.6-1.4-1-2.3-1c0,0,0,0,0,0H10C10,28.8,10,28.8,10,28.8z"/>
<path class="st0" d="M33,35.8H15c-0.4,0-0.8-0.3-0.8-0.8s0.3-0.8,0.8-0.8h18c0.4,0,0.8,0.3,0.8,0.8S33.4,35.8,33,35.8z"/>
<path class="st0" d="M42,34.8c-0.4,0-0.8-0.3-0.8-0.8V10c0-1.8-1.5-3.3-3.3-3.3H10c-1.8,0-3.3,1.5-3.3,3.3v22c0,0.4-0.3,0.8-0.8,0.8
	S5.2,32.4,5.2,32V10c0-2.6,2.1-4.8,4.8-4.8h28c2.6,0,4.8,2.1,4.8,4.8v24C42.8,34.4,42.4,34.8,42,34.8z"/>
</svg>
