<?xml version="1.0" encoding="utf-8"?>
<!-- Generator: Adobe Illustrator 19.2.1, SVG Export Plug-In . SVG Version: 6.00 Build 0)  -->
<svg version="1.1" id="Слой_1" xmlns="http://www.w3.org/2000/svg" xmlns:xlink="http://www.w3.org/1999/xlink" x="0px" y="0px"
	 viewBox="0 0 48 48" style="enable-background:new 0 0 48 48;" xml:space="preserve">
<style type="text/css">
	.st0{fill:#FFFFFF;}
</style>
<path class="st0" d="M38,42.8H10c-2.6,0-4.8-2.1-4.8-4.8V10c0-2.6,2.1-4.8,4.8-4.8h28c2.6,0,4.8,2.1,4.8,4.8v28
	C42.8,40.6,40.6,42.8,38,42.8z M10,6.8c-1.8,0-3.3,1.5-3.3,3.3v28c0,1.8,1.5,3.3,3.3,3.3h28c1.8,0,3.3-1.5,3.3-3.3V10
	c0-1.8-1.5-3.3-3.3-3.3H10z"/>
<path class="st0" d="M31.5,34.4c-0.1,0-0.3,0-0.4,0l-15-1.9c-1.6-0.2-2.8-1.6-2.8-3.2V18.7c0-1.6,1.2-3,2.8-3.2l15-1.9
	c0.9-0.1,1.9,0.2,2.6,0.8c0.7,0.6,1.1,1.5,1.1,2.4v14.3c0,0.9-0.4,1.8-1.1,2.4C33.1,34.1,32.3,34.4,31.5,34.4z M31.5,15.1
	c-0.1,0-0.1,0-0.2,0l-15,1.9c-0.9,0.1-1.5,0.9-1.5,1.7v10.6c0,0.9,0.7,1.6,1.5,1.7l15,1.9h0c0.5,0.1,1-0.1,1.4-0.4s0.6-0.8,0.6-1.3
	V16.8c0-0.5-0.2-1-0.6-1.3C32.3,15.2,31.9,15.1,31.5,15.1z"/>
<path class="st0" d="M24,33.5c-0.4,0-0.8-0.3-0.8-0.8V15.2c0-0.4,0.3-0.8,0.8-0.8s0.8,0.3,0.8,0.8v17.5C24.8,33.2,24.4,33.5,24,33.5
	z"/>
<path class="st0" d="M34,24.8H14c-0.4,0-0.8-0.3-0.8-0.8s0.3-0.8,0.8-0.8h20c0.4,0,0.8,0.3,0.8,0.8S34.4,24.8,34,24.8z"/>
</svg>
