<svg xmlns="http://www.w3.org/2000/svg" viewBox="0 0 48 48">
<path d="M19,30.8c-0.1,0-0.1,0-0.2,0c-0.4-0.1-0.6-0.5-0.5-0.9c0.3-1.1,0.1-2.2-0.4-3.2c-0.6-1-1.5-1.7-2.6-2c-0.4-0.1-0.6-0.5-0.5-0.9c0.1-0.4,0.5-0.6,0.9-0.5c1.5,0.4,2.7,1.3,3.5,2.7c0.8,1.3,1,2.9,0.6,4.3C19.6,30.5,19.3,30.8,19,30.8z"/>
<path d="M22.5,36.8c-0.1,0-0.1,0-0.2,0c-3-0.8-4.8-3.9-4-7c0.1-0.4,0.5-0.6,0.9-0.5c0.4,0.1,0.6,0.5,0.5,0.9c-0.6,2.2,0.7,4.5,3,5.1c0.4,0.1,0.6,0.5,0.5,0.9C23.1,36.6,22.8,36.8,22.5,36.8z"/>
<path d="M20.3,30.9c-0.5,0-1-0.1-1.5-0.2c-0.4-0.1-0.6-0.5-0.5-0.9c0.1-0.4,0.5-0.6,0.9-0.5c2.2,0.6,4.5-0.7,5.1-3c0.1-0.4,0.5-0.6,0.9-0.5c0.4,0.1,0.6,0.5,0.5,0.9C25.1,29.2,22.8,30.9,20.3,30.9z"/>
<path d="M19,37.8c-4.3,0-7.8-3.5-7.8-7.8s3.5-7.8,7.8-7.8s7.8,3.5,7.8,7.8S23.3,37.8,19,37.8z M19,23.7c-3.4,0-6.3,2.8-6.3,6.3s2.8,6.3,6.3,6.3s6.3-2.8,6.3-6.3S22.4,23.7,19,23.7z"/>
<path d="M36,34.8h-4c-0.4,0-0.8-0.3-0.8-0.8s0.3-0.8,0.8-0.8h4c0.4,0,0.8,0.3,0.8,0.8S36.4,34.8,36,34.8z"/>
<path d="M38,42.8H10c-2.6,0-4.8-2.1-4.8-4.8V22c0-2.6,2.1-4.8,4.8-4.8h28c2.6,0,4.8,2.1,4.8,4.8v16C42.8,40.6,40.6,42.8,38,42.8z M10,18.7c-1.8,0-3.3,1.5-3.3,3.3v16c0,1.8,1.5,3.3,3.3,3.3h28c1.8,0,3.3-1.5,3.3-3.3V22c0-1.8-1.5-3.3-3.3-3.3H10z"/>
<path d="M42,24.8c-0.4,0-0.8-0.3-0.8-0.8v-2.9c0-0.7-0.1-1.4-0.2-2.2l-1.3-9.4c-0.2-1.6-1.6-2.8-3.2-2.8H11.5c-1.6,0-3,1.2-3.2,2.8L6.9,19c-0.1,0.7-0.2,1.4-0.2,2.2V24c0,0.4-0.3,0.8-0.8,0.8S5.2,24.4,5.2,24v-2.9c0-0.8,0.1-1.6,0.2-2.4l1.3-9.4C7.1,7,9.1,5.2,11.5,5.2h25.1c2.3,0,4.4,1.8,4.7,4.1l1.3,9.4c0.1,0.8,0.2,1.6,0.2,2.4V24C42.8,24.4,42.4,24.8,42,24.8z"/>
<path d="M12.9,34.3c-0.1,0-0.1,0-0.2,0c-0.4-0.1-0.6-0.5-0.5-0.9c0.4-1.5,1.3-2.7,2.7-3.5c1.3-0.8,2.9-1,4.3-0.6c0.4,0.1,0.6,0.5,0.5,0.9s-0.5,0.6-0.9,0.5c-1.1-0.3-2.2-0.1-3.2,0.4c-1,0.6-1.7,1.5-2,2.6C13.6,34,13.3,34.3,12.9,34.3z"/>
</svg>
