<svg width="48" height="48" viewBox="0 0 48 48" fill="none" xmlns="http://www.w3.org/2000/svg">
<path fill-rule="evenodd" clip-rule="evenodd" d="M17 14.58V13.5467H10.2V23.88H17V22.8467C17 21.5916 17.9854 20.5733 19.2 20.5733H36.8C38.0146 20.5733 39 21.5916 39 22.8467V26.1533C39 27.4084 38.0146 28.4267 36.8 28.4267H19.2C17.9854 28.4267 17 27.4084 17 26.1533V25.12H10.2V34.42C10.2 34.9902 10.6482 35.4533 11.2 35.4533H17V34.42C17 33.1649 17.9854 32.1467 19.2 32.1467H36.8C38.0146 32.1467 39 33.1649 39 34.42V37.7267C39 38.9817 38.0146 40 36.8 40H19.2C17.9854 40 17 38.9817 17 37.7267V36.6933H11.2C9.98543 36.6933 9 35.6751 9 34.42V9.62C9 9.27758 9.26863 9 9.6 9C9.93137 9 10.2 9.27758 10.2 9.62V12.3067H17V11.2733C17 10.0183 17.9854 9 19.2 9H36.8C38.0146 9 39 10.0183 39 11.2733V14.58C39 15.8351 38.0146 16.8533 36.8 16.8533H19.2C17.9854 16.8533 17 15.8351 17 14.58ZM19.2 10.24C18.6482 10.24 18.2 10.7031 18.2 11.2733V14.58C18.2 15.1502 18.6482 15.6133 19.2 15.6133H36.8C37.3518 15.6133 37.8 15.1502 37.8 14.58V11.2733C37.8 10.7031 37.3518 10.24 36.8 10.24H19.2ZM19.2 38.76C18.6482 38.76 18.2 38.2969 18.2 37.7267V34.42C18.2 33.8498 18.6482 33.3867 19.2 33.3867H36.8C37.3518 33.3867 37.8 33.8498 37.8 34.42V37.7267C37.8 38.2969 37.3518 38.76 36.8 38.76H19.2ZM19.2 27.1867C18.6482 27.1867 18.2 26.7236 18.2 26.1533V22.8467C18.2 22.2764 18.6482 21.8133 19.2 21.8133H36.8C37.3518 21.8133 37.8 22.2764 37.8 22.8467V26.1533C37.8 26.7236 37.3518 27.1867 36.8 27.1867H19.2Z" fill="white"/>
</svg>
