<?xml version="1.0" encoding="utf-8"?>
<!-- Generator: Adobe Illustrator 19.2.1, SVG Export Plug-In . SVG Version: 6.00 Build 0)  -->
<svg version="1.1" id="Слой_1" xmlns="http://www.w3.org/2000/svg" xmlns:xlink="http://www.w3.org/1999/xlink" x="0px" y="0px"
	 viewBox="0 0 24 24" style="enable-background:new 0 0 24 24;" xml:space="preserve">
<path d="M16.5,21.8h-9c-2.9,0-5.2-2.4-5.2-5.2v-9c0-2.9,2.4-5.3,5.3-5.3h9c2.9,0,5.2,2.4,5.2,5.2v9C21.8,19.4,19.4,21.8,16.5,21.8z M7.5,3.8c-2.1,0-3.8,1.7-3.8,3.8v9c0,2.1,1.7,3.7,3.7,3.7h9c2.1,0,3.7-1.7,3.7-3.7v-9c0-2.1-1.7-3.7-3.7-3.7H7.5z"/>
<path d="M11.9,16.5c-1.6,0-3.1-0.9-4.2-2.5c-1.5-2-2-3.7-2-4.3c0-0.4,0.3-0.8,0.8-0.8s0.8,0.3,0.8,0.8c0,0.2,0.4,1.6,1.7,3.5c0.6,0.9,1.4,1.5,2.2,1.7l0-4.5h-0.5c-0.4,0-0.8-0.3-0.8-0.8s0.3-0.8,0.8-0.8h1.2c0.4,0,0.8,0.3,0.8,0.8v6.1C12.6,16.1,12.3,16.5,11.9,16.5z"/>
<path d="M16.7,16.5c-0.3,0-0.5-0.2-0.7-0.4c0,0-0.4-0.9-1.2-1.8c-0.4-0.5-1.1-0.8-1.6-0.8c-0.4,0-0.8-0.3-0.8-0.8c0-0.4,0.3-0.8,0.8-0.8c0.6,0,1.2-0.3,1.6-0.8c0.8-0.9,1.2-1.8,1.2-1.8C16.2,9,16.6,8.8,17,9c0.4,0.2,0.5,0.6,0.4,1c0,0-0.5,1-1.5,2.1c-0.2,0.2-0.4,0.4-0.6,0.6c0.2,0.2,0.4,0.4,0.6,0.6c0.9,1.1,1.4,2.1,1.4,2.1c0.2,0.4,0,0.8-0.4,1C16.9,16.4,16.8,16.5,16.7,16.5z"/>
<path d="M13.1,13.4h-1.2c-0.4,0-0.8-0.3-0.8-0.7c0-0.4,0.3-0.8,0.8-0.8h1.2c0.4,0,0.8,0.3,0.8,0.8C13.9,13.1,13.5,13.4,13.1,13.4z"/>
</svg>
