<svg xmlns="http://www.w3.org/2000/svg" viewBox="0 0 30 30">
<path d="M14.7,20.8c-0.9,0-1.8-0.4-2.4-1l-1.4-1.4c-0.7-0.7-1-1.6-1-2.5s0.5-1.8,1.2-2.5l10-8.8c1.4-1.2,3.5-1.2,4.9,0.2c0,0,0,0,0,0c1.3,1.3,1.4,3.5,0.2,4.9l-8.8,10c-0.6,0.7-1.5,1.1-2.5,1.2C14.8,20.8,14.8,20.8,14.7,20.8z M23.4,5.5c-0.4,0-0.8,0.1-1.1,0.4l-10,8.8c-0.3,0.3-0.5,0.7-0.5,1.1c0,0.4,0.1,0.8,0.5,1.2l1.4,1.4c0.3,0.3,0.7,0.5,1.2,0.5c0.4,0,0.8-0.2,1.1-0.5l8.8-10c0.6-0.7,0.5-1.7-0.1-2.3C24.3,5.7,23.9,5.5,23.4,5.5z"/>
<path d="M18.3,18c-0.2,0-0.5-0.1-0.7-0.3L12.9,13c-0.4-0.4-0.4-1,0-1.3c0.4-0.4,1-0.4,1.3,0l4.7,4.7c0.4,0.4,0.4,1,0,1.3C18.8,17.9,18.6,18,18.3,18z"/>
<path d="M9.1,26.3H4.5c-0.5,0-0.9-0.2-1.2-0.6c-0.3-0.4-0.3-0.9-0.2-1.4L5,19.3c0.6-1.5,1.8-2.6,3.4-2.9c1.6-0.3,3.2,0.1,4.3,1.3c1.5,1.5,1.9,3.6,1.1,5.6C13.1,25.1,11.2,26.3,9.1,26.3z M5.1,24.5h4.1c1.6,0,2.6-1,3-2c0.4-1,0.4-2.4-0.7-3.5c-0.7-0.7-1.6-1-2.6-0.8c-1,0.2-1.7,0.9-2.1,1.8L5.1,24.5z"/>
</svg>
