<?xml version="1.0" encoding="utf-8"?>
<!-- Generator: Adobe Illustrator 19.2.1, SVG Export Plug-In . SVG Version: 6.00 Build 0)  -->
<svg version="1.1" id="Слой_1" xmlns="http://www.w3.org/2000/svg" xmlns:xlink="http://www.w3.org/1999/xlink" x="0px" y="0px"
	 viewBox="0 0 31 30" style="enable-background:new 0 0 31 30;" xml:space="preserve">
<path d="M19.6,19.1h-8.8c-0.5,0-1-0.4-1-1s0.4-1,1-1h8.8c0.5,0,1,0.4,1,1S20.2,19.1,19.6,19.1z"/>
<path d="M19.6,14.1h-8.8c-0.5,0-1-0.4-1-1s0.4-1,1-1h8.8c0.5,0,1,0.4,1,1S20.2,14.1,19.6,14.1z"/>
<path d="M4,27.3c-0.3,0-0.5-0.1-0.7-0.3C3,26.7,2.9,26.4,3,26l1.3-5.4C3.5,18.9,3,17,3,15C3,8.2,8.5,2.7,15.3,2.7S27.5,8.2,27.5,15S22,27.3,15.3,27.3c-2,0-3.9-0.5-5.6-1.4l-5.4,1.3C4.2,27.3,4.1,27.3,4,27.3z M9.8,23.8c0.2,0,0.3,0,0.5,0.1c1.5,0.9,3.3,1.3,5,1.3c5.6,0,10.2-4.6,10.2-10.2S20.9,4.8,15.3,4.8S5,9.4,5,15c0,1.7,0.5,3.5,1.3,5c0.1,0.2,0.2,0.5,0.1,0.7l-1,4.1l4.1-1C9.6,23.8,9.7,23.8,9.8,23.8z"/>
</svg>
