<svg width="24" height="25" viewBox="0 0 24 25" fill="none" xmlns="http://www.w3.org/2000/svg">
<path d="M9.599 7.198L12 9.599L9.599 12" stroke="white" stroke-width="1.5" stroke-linecap="round" stroke-linejoin="round"/>
<path d="M14.401 12L12 14.401L14.401 16.802" stroke="white" stroke-width="1.5" stroke-linecap="round" stroke-linejoin="round"/>
<path d="M18.3666 18.3665C19.2153 17.5178 19.8591 16.5418 20.2981 15.5C21.6779 12.2256 21.0341 8.30081 18.3666 5.63333C16.6781 3.94478 14.3879 2.99615 12 2.99615C9.612 2.99615 7.32185 3.94478 5.63331 5.63333C3.87522 7.39144 2.99619 9.69573 2.99622 12C2.99624 14.3042 3.87529 16.6085 5.63337 18.3665C7.39146 20.1246 9.69571 21.0037 12 21.0037" stroke="white" stroke-width="1.5" stroke-linecap="round" stroke-linejoin="round"/>
<path d="M16.33 19V23.66" stroke="white" stroke-width="1.5" stroke-linecap="round" stroke-linejoin="round"/>
<path d="M18.66 21.33H14" stroke="white" stroke-width="1.5" stroke-linecap="round" stroke-linejoin="round"/>
</svg>
