<svg xmlns="http://www.w3.org/2000/svg" viewBox="0 0 32 32">
<path d="M21.4,28.7c-0.3,0-0.7,0-1-0.1c-3.8-0.7-7.7-2.9-11-6.2c-3.2-3.2-5.4-7.1-6.2-11C3,9.9,3.5,8.2,4.7,7.1l0.9-0.9c1.3-1.3,3.5-1.3,4.8,0l1.6,1.6c0.5,0.5,0.8,1.2,0.8,2c0,0.7-0.3,1.5-0.9,2l-1.1,1.1c-0.1,0.1-0.1,0.2-0.1,0.3c0.8,1.7,1.9,3.4,3.4,4.8c1.4,1.4,3.1,2.6,4.9,3.4c0.1,0,0.2,0,0.3-0.1l1.2-1.2c1-1,2.8-1,3.9,0l1.6,1.6c1.3,1.3,1.3,3.5,0,4.8l-0.9,0.9C24,28.2,22.8,28.7,21.4,28.7z M8,6.7c-0.5,0-1,0.2-1.4,0.6L5.7,8.1c-0.8,0.8-1.1,2-0.9,3.2c0.7,3.5,2.7,7.1,5.7,10.2c3,3,6.6,5.1,10.2,5.7c1.2,0.2,2.4-0.1,3.2-0.9l0.9-0.9c0.7-0.7,0.7-2,0-2.7l-1.6-1.6c-0.5-0.5-1.3-0.5-1.8,0l-1.2,1.2c-0.5,0.5-1.3,0.7-1.9,0.4c-1.9-0.8-3.7-2.1-5.3-3.7l0,0c-1.6-1.6-2.8-3.4-3.7-5.3c-0.3-0.6-0.1-1.4,0.4-1.9l1.1-1.1c0.6-0.6,0.6-1.4,0.1-1.9L9.3,7.2C8.9,6.9,8.5,6.7,8,6.7z"/>
<path d="M28,12.8c-0.4,0-0.8-0.3-0.8-0.8V4.8H20c-0.4,0-0.8-0.3-0.8-0.8s0.3-0.8,0.8-0.8h8c0.4,0,0.8,0.3,0.8,0.8v8C28.8,12.4,28.4,12.8,28,12.8z"/>
<path d="M20,12.8c-0.2,0-0.4-0.1-0.5-0.2c-0.3-0.3-0.3-0.8,0-1.1l8-8c0.3-0.3,0.8-0.3,1.1,0s0.3,0.8,0,1.1l-8,8C20.4,12.7,20.2,12.8,20,12.8z"/>
</svg>
