<svg xmlns="http://www.w3.org/2000/svg" viewBox="0 0 24 24">
<path d="M15.9,7.2c-0.4,0-0.8-0.3-0.8-0.8V4.1c0-0.2-0.2-0.4-0.4-0.4H9.2C9,3.7,8.8,3.9,8.8,4.1v2.4c0,0.4-0.3,0.8-0.8,0.8S7.3,6.9,7.3,6.5V4.1c0-1,0.8-1.9,1.9-1.9h5.6c1,0,1.9,0.8,1.9,1.9v2.4C16.7,6.9,16.4,7.2,15.9,7.2z"/>
<path d="M15.5,21.8H8.5c-1.6,0-2.9-1.2-3-2.8l-1-12.4c0-0.4,0.3-0.8,0.7-0.8C5.6,5.7,6,6,6,6.4l1,12.4c0.1,0.8,0.7,1.4,1.5,1.4h7.1c0.8,0,1.4-0.6,1.5-1.4l1-12.4c0-0.4,0.4-0.7,0.8-0.7c0.4,0,0.7,0.4,0.7,0.8l-1,12.4C18.4,20.5,17.1,21.8,15.5,21.8z"/>
<path d="M20,7.2H4c-0.4,0-0.8-0.3-0.8-0.8S3.6,5.7,4,5.7h16c0.4,0,0.8,0.3,0.8,0.8S20.4,7.2,20,7.2z"/>
<path d="M14,15.8h-4c-0.4,0-0.8-0.3-0.8-0.8s0.3-0.8,0.8-0.8h4c0.4,0,0.8,0.3,0.8,0.8S14.4,15.8,14,15.8z"/>
<path d="M14,12.8h-4c-0.4,0-0.8-0.3-0.8-0.8s0.3-0.8,0.8-0.8h4c0.4,0,0.8,0.3,0.8,0.8S14.4,12.8,14,12.8z"/>
</svg>
