<svg width="32" height="32" viewBox="0 0 32 32" fill="none" xmlns="http://www.w3.org/2000/svg">
<path d="M4 20H9.84267C10.348 20 10.8093 20.2853 11.0347 20.7373L11.6307 21.9293C11.8573 22.3813 12.3187 22.6667 12.824 22.6667H19.176C19.6813 22.6667 20.1427 22.3813 20.368 21.9293L20.964 20.7373C21.1907 20.2853 21.652 20 22.1573 20H28" stroke="white" stroke-width="1.5" stroke-linecap="round" stroke-linejoin="round"/>
<path d="M22.6667 4H25.3333C26.8067 4 28 5.19333 28 6.66667V25.3333C28 26.8067 26.8067 28 25.3333 28H6.66667C5.19333 28 4 26.8067 4 25.3333V6.66667C4 5.19333 5.19333 4 6.66667 4H9.33333" stroke="white" stroke-width="1.5" stroke-linecap="round" stroke-linejoin="round"/>
<path d="M16.0133 4V16" stroke="white" stroke-width="1.5" stroke-linecap="round" stroke-linejoin="round"/>
<path d="M11.212 11.212L16 16L20.788 11.212" stroke="white" stroke-width="1.5" stroke-linecap="round" stroke-linejoin="round"/>
</svg>
