<svg xmlns="http://www.w3.org/2000/svg" viewBox="0 0 32 32">
<path d="M19.2,23.4h-6.4c-0.8,0-1.5-0.4-1.9-1.2l-0.6-1.2c-0.1-0.2-0.3-0.3-0.5-0.3H4c-0.4,0-0.8-0.3-0.8-0.8s0.3-0.8,0.8-0.8h5.8c0.8,0,1.5,0.4,1.9,1.2l0.6,1.2c0.1,0.2,0.3,0.3,0.5,0.3h6.4c0.2,0,0.4-0.1,0.5-0.3l0.6-1.2c0.4-0.7,1.1-1.2,1.9-1.2H28c0.4,0,0.8,0.3,0.8,0.8s-0.3,0.8-0.8,0.8h-5.8c-0.2,0-0.4,0.1-0.5,0.3L21,22.3C20.7,23,20,23.4,19.2,23.4z"/>
<path d="M25.3,28.8H6.7c-1.9,0-3.4-1.5-3.4-3.4V6.7c0-1.9,1.5-3.4,3.4-3.4h2.7c0.4,0,0.8,0.3,0.8,0.8S9.7,4.8,9.3,4.8H6.7c-1.1,0-1.9,0.9-1.9,1.9v18.7c0,1.1,0.9,1.9,1.9,1.9h18.7c1.1,0,1.9-0.9,1.9-1.9V6.7c0-1.1-0.9-1.9-1.9-1.9h-2.7c-0.4,0-0.8-0.3-0.8-0.8s0.3-0.8,0.8-0.8h2.7c1.9,0,3.4,1.5,3.4,3.4v18.7C28.8,27.2,27.2,28.8,25.3,28.8z"/>
<path d="M16,16.8c-0.4,0-0.8-0.3-0.8-0.8V4c0-0.4,0.3-0.8,0.8-0.8s0.8,0.3,0.8,0.8v12C16.8,16.4,16.4,16.8,16,16.8z"/>
<path d="M16,16.8c-0.2,0-0.4-0.1-0.5-0.2l-4.8-4.8c-0.3-0.3-0.3-0.8,0-1.1s0.8-0.3,1.1,0l4.3,4.3l4.3-4.3c0.3-0.3,0.8-0.3,1.1,0s0.3,0.8,0,1.1l-4.8,4.8C16.4,16.7,16.2,16.8,16,16.8z"/>
</svg>
