<svg xmlns="http://www.w3.org/2000/svg" viewBox="0 0 24 24">
<path d="M20,21.8c-1.5,0-2.8-1.2-2.8-2.8V5c0-1.5,1.2-2.8,2.8-2.8s2.8,1.2,2.8,2.8v14C22.8,20.5,21.5,21.8,20,21.8z M20,3.8c-0.7,0-1.3,0.6-1.3,1.3v14c0,0.7,0.6,1.3,1.3,1.3s1.3-0.6,1.3-1.3V5C21.3,4.3,20.7,3.8,20,3.8z"/>
<path d="M4,21.8c-1.5,0-2.8-1.2-2.8-2.8v-8.3c0-1.5,1.2-2.8,2.8-2.8s2.8,1.2,2.8,2.8V19C6.8,20.5,5.5,21.8,4,21.8z M4,9.4c-0.7,0-1.3,0.6-1.3,1.3V19c0,0.7,0.6,1.3,1.3,1.3s1.3-0.6,1.3-1.3v-8.3C5.3,10,4.7,9.4,4,9.4z"/>
<path d="M12,21.8c-1.5,0-2.8-1.2-2.8-2.8v-2.6c0-1.5,1.2-2.8,2.8-2.8s2.8,1.2,2.8,2.8V19C14.8,20.5,13.5,21.8,12,21.8z M12,15.1c-0.7,0-1.3,0.6-1.3,1.3V19c0,0.7,0.6,1.3,1.3,1.3s1.3-0.6,1.3-1.3v-2.6C13.3,15.7,12.7,15.1,12,15.1z"/>
</svg>
