<svg xmlns="http://www.w3.org/2000/svg" viewBox="0 0 40 40">
<path d="M11,36.3c-0.2,0-0.5-0.1-0.7-0.2c-0.4-0.2-0.6-0.6-0.6-1.1l0-4.7c-3.8-2.8-6-7-6-11.5C3.8,10.6,11,3.9,20,3.9c9,0,16.3,6.7,16.3,14.9C36.3,27,29,33.7,20,33.7c-1,0-2-0.1-2.9-0.2l-5.5,2.7C11.4,36.3,11.2,36.3,11,36.3z M12.3,35.1L12.3,35.1L12.3,35.1z M20,6.4C12.4,6.4,6.3,12,6.3,18.8c0,3.9,2,7.5,5.5,9.9c0.3,0.2,0.5,0.6,0.5,1l0,3.3l4.1-2c0.2-0.1,0.5-0.2,0.8-0.1c1,0.2,1.9,0.3,2.9,0.3c7.6,0,13.8-5.6,13.8-12.4S27.6,6.4,20,6.4z"/>
<path d="M19.8,21.8c-0.7,0-1.3-0.6-1.3-1.3v-0.3c0-1.9,1.4-2.9,2-3.3c0.6-0.4,0.8-0.7,0.8-1.1c0-0.8-0.7-1.5-1.5-1.5c-0.8,0-1.5,0.7-1.5,1.5c0,0.7-0.6,1.3-1.3,1.3s-1.3-0.6-1.3-1.3c0-2.2,1.8-4,4-4c2.2,0,4,1.8,4,4c0,1.9-1.4,2.8-1.9,3.2c-0.6,0.4-0.8,0.7-0.8,1.2v0.3C21.1,21.2,20.5,21.8,19.8,21.8z"/>
<path d="M19.8,26.2c-0.8,0-1.5-0.7-1.5-1.5c0-0.4,0.1-0.8,0.4-1.1c0.3-0.3,0.7-0.4,1.1-0.4c0.8,0,1.5,0.7,1.5,1.5S20.7,26.2,19.8,26.2z M19.8,23.7c-0.6,0-1,0.4-1,1s0.4,1,1,1c0.3,0,0.5-0.1,0.7-0.3c0.2-0.2,0.3-0.5,0.3-0.7C20.8,24.1,20.4,23.7,19.8,23.7z"/>
</svg>
