<?xml version="1.0" encoding="utf-8"?>
<!-- Generator: Adobe Illustrator 19.2.1, SVG Export Plug-In . SVG Version: 6.00 Build 0)  -->
<svg version="1.1" id="Слой_1" xmlns="http://www.w3.org/2000/svg" xmlns:xlink="http://www.w3.org/1999/xlink" x="0px" y="0px"
	 viewBox="0 0 30 30" style="enable-background:new 0 0 30 30;" xml:space="preserve">
<path d="M15,24.4c-1,0-1.9-0.8-1.9-1.9c0-0.5,0.2-1,0.5-1.3c0.4-0.4,0.8-0.6,1.3-0.6c1,0,1.9,0.8,1.9,1.9S16,24.4,15,24.4z M15,21.9c-0.3,0-0.6,0.3-0.6,0.6s0.3,0.6,0.6,0.6c0.2,0,0.3-0.1,0.4-0.2c0.1-0.1,0.2-0.3,0.2-0.5C15.6,22.2,15.3,21.9,15,21.9z"/>
<path d="M15,16.9c-1,0-1.9-0.8-1.9-1.9c0-0.5,0.2-1,0.5-1.3c0.4-0.4,0.8-0.6,1.3-0.6c1,0,1.9,0.8,1.9,1.9S16,16.9,15,16.9z M15,14.4c-0.3,0-0.6,0.3-0.6,0.6c0,0.3,0.3,0.6,0.6,0.6c0.2,0,0.3-0.1,0.4-0.2c0.1-0.1,0.2-0.3,0.2-0.5C15.6,14.7,15.3,14.4,15,14.4z"/>
<path d="M15,9.4c-1,0-1.9-0.8-1.9-1.9c0-0.5,0.2-1,0.5-1.3C14,5.8,14.5,5.6,15,5.6c1,0,1.9,0.8,1.9,1.9C16.9,8.5,16,9.4,15,9.4z M15,6.9c-0.3,0-0.6,0.3-0.6,0.6c0,0.3,0.3,0.6,0.6,0.6c0.2,0,0.3-0.1,0.4-0.2c0.1-0.1,0.2-0.3,0.2-0.5C15.6,7.2,15.3,6.9,15,6.9z"/>
</svg>
