<svg width="33" height="32" viewBox="0 0 33 32" fill="none" xmlns="http://www.w3.org/2000/svg">
<path fill-rule="evenodd" clip-rule="evenodd" d="M25.052 8.552L21.2813 4.78133C20.7813 4.28133 20.1027 4 19.396 4H9.83333C8.36 4 7.16667 5.19333 7.16667 6.66667V25.3333C7.16667 26.8067 8.36 28 9.83333 28H23.1667C24.64 28 25.8333 26.8067 25.8333 25.3333V10.4373C25.8333 9.73067 25.552 9.052 25.052 8.552V8.552Z" stroke="white" stroke-width="1.5" stroke-linecap="round" stroke-linejoin="round"/>
<path d="M25.8333 10.6667H20.5C19.764 10.6667 19.1667 10.0693 19.1667 9.33333V4" stroke="white" stroke-width="1.5" stroke-linecap="round" stroke-linejoin="round"/>
<path d="M14.2867 22.0667H18.7133" stroke="white" stroke-width="1.5" stroke-linecap="round" stroke-linejoin="round"/>
<path fill-rule="evenodd" clip-rule="evenodd" d="M14.944 17.0013V15.444C14.944 15.0146 15.292 14.6666 15.7213 14.6666H17.2787C17.708 14.6666 18.056 15.0146 18.056 15.444V17.0013C18.056 17.4306 17.708 17.7786 17.2787 17.7786H15.7213C15.292 17.7773 14.944 17.4293 14.944 17.0013Z" stroke="white" stroke-width="1.5" stroke-linecap="round" stroke-linejoin="round"/>
<path fill-rule="evenodd" clip-rule="evenodd" d="M11.1667 23.2226V21.6653C11.1667 21.2359 11.5147 20.8879 11.944 20.8879H13.5013C13.9307 20.8879 14.2787 21.2359 14.2787 21.6653V23.2226C14.2787 23.6519 13.9307 23.9999 13.5013 23.9999H11.944C11.5147 23.9999 11.1667 23.6519 11.1667 23.2226Z" stroke="white" stroke-width="1.5" stroke-linecap="round" stroke-linejoin="round"/>
<path fill-rule="evenodd" clip-rule="evenodd" d="M18.7227 23.2226V21.6653C18.7227 21.2359 19.0707 20.8879 19.5 20.8879H21.0573C21.4867 20.8879 21.8347 21.2359 21.8347 21.6653V23.2226C21.8333 23.6519 21.4853 23.9999 21.056 23.9999H19.4987C19.0707 23.9999 18.7227 23.6519 18.7227 23.2226H18.7227Z" stroke="white" stroke-width="1.5" stroke-linecap="round" stroke-linejoin="round"/>
<path d="M19.4867 20.8934L17.4733 17.7467" stroke="white" stroke-width="1.5" stroke-linecap="round" stroke-linejoin="round"/>
<path d="M13.5133 20.8934L15.5267 17.7467" stroke="white" stroke-width="1.5" stroke-linecap="round" stroke-linejoin="round"/>
</svg>
