<?xml version="1.0" encoding="utf-8"?>
<!-- Generator: Adobe Illustrator 19.2.1, SVG Export Plug-In . SVG Version: 6.00 Build 0)  -->
<svg version="1.1" id="Слой_1" xmlns="http://www.w3.org/2000/svg" xmlns:xlink="http://www.w3.org/1999/xlink" x="0px" y="0px"
	 viewBox="0 0 33 32" style="enable-background:new 0 0 33 32;" xml:space="preserve">
<style type="text/css">
	.st0{fill:#FFFFFF;}
</style>
<path class="st0" d="M23.2,28.8H9.8c-1.9,0-3.4-1.5-3.4-3.4V6.7c0-1.9,1.5-3.4,3.4-3.4h9.6c0.9,0,1.8,0.4,2.4,1L25.6,8
	c0.6,0.6,1,1.5,1,2.4v14.9C26.6,27.2,25.1,28.8,23.2,28.8z M9.8,4.8c-1.1,0-1.9,0.9-1.9,1.9v18.7c0,1.1,0.9,1.9,1.9,1.9h13.3
	c1.1,0,1.9-0.9,1.9-1.9V10.4c0-0.5-0.2-1-0.6-1.4l-3.8-3.8c-0.4-0.4-0.9-0.6-1.4-0.6H9.8z"/>
<path class="st0" d="M25.8,11.4h-5.3c-1.1,0-2.1-0.9-2.1-2.1V4c0-0.4,0.3-0.8,0.8-0.8s0.8,0.3,0.8,0.8v5.3c0,0.3,0.3,0.6,0.6,0.6
	h5.3c0.4,0,0.8,0.3,0.8,0.8S26.2,11.4,25.8,11.4z"/>
<path class="st0" d="M18.7,22.8h-4.4c-0.4,0-0.8-0.3-0.8-0.8s0.3-0.8,0.8-0.8h4.4c0.4,0,0.8,0.3,0.8,0.8S19.1,22.8,18.7,22.8z"/>
<path class="st0" d="M17.3,18.5h-1.6c-0.8,0-1.5-0.7-1.5-1.5v-1.6c0-0.8,0.7-1.5,1.5-1.5h1.6c0.8,0,1.5,0.7,1.5,1.5V17
	C18.8,17.8,18.1,18.5,17.3,18.5z M15.7,15.4l0,1.6c0,0,0,0,0,0h1.6l0-1.6L15.7,15.4z"/>
<path class="st0" d="M13.5,24.8h-1.6c-0.8,0-1.5-0.7-1.5-1.5v-1.6c0-0.8,0.7-1.5,1.5-1.5h1.6c0.8,0,1.5,0.7,1.5,1.5v1.6
	C15,24.1,14.3,24.8,13.5,24.8z M11.9,21.6l0,1.6c0,0,0,0,0,0h1.6l0-1.6L11.9,21.6z"/>
<path class="st0" d="M21.1,24.8h-1.6c-0.8,0-1.5-0.7-1.5-1.5v-1.6c0-0.8,0.7-1.5,1.5-1.5h1.6c0.8,0,1.5,0.7,1.5,1.5v1.6
	C22.6,24.1,21.9,24.8,21.1,24.8z M19.5,21.6l0,1.6c0,0,0,0,0,0h1.6l0-1.6L19.5,21.6z"/>
<path class="st0" d="M19.5,21.6c-0.2,0-0.5-0.1-0.6-0.3l-2-3.1c-0.2-0.3-0.1-0.8,0.2-1c0.4-0.2,0.8-0.1,1,0.2l2,3.1
	c0.2,0.3,0.1,0.8-0.2,1C19.8,21.6,19.6,21.6,19.5,21.6z"/>
<path class="st0" d="M13.5,21.6c-0.1,0-0.3,0-0.4-0.1c-0.3-0.2-0.5-0.7-0.2-1l2-3.1c0.2-0.3,0.7-0.5,1-0.2c0.3,0.2,0.5,0.7,0.2,1
	l-2,3.1C14,21.5,13.8,21.6,13.5,21.6z"/>
</svg>
