<svg width="22" height="22" viewBox="0 0 22 22" fill="none" xmlns="http://www.w3.org/2000/svg">
<path d="M18.4999 7.25L16 11H17.25C17.25 14.446 14.446 17.25 11 17.25C8.87949 17.25 7.00837 16.183 5.87786 14.5633L4.42041 16.7495C6.02557 18.584 8.37664 19.75 11 19.75C15.8248 19.75 19.75 15.8248 19.75 11H21L18.4999 7.25Z"/>
<path d="M4.75 10.9999C4.75 7.5539 7.55395 4.74994 11 4.74994C13.1205 4.74994 14.9916 5.8169 16.1221 7.43664L17.5796 5.25046C15.9744 3.41598 13.6233 2.25 11 2.25C6.17515 2.25 2.25001 6.17518 2.25001 11H1L3.49998 14.75L5.99997 11L4.75 10.9999Z"/>
</svg>
