<svg xmlns="http://www.w3.org/2000/svg" viewBox="0 0 32 32">
<path d="M8.9,20.3c-1.1,0-2.2-0.4-3-1.3c-1.7-1.7-1.7-4.4,0-6.1c1.7-1.7,4.4-1.7,6.1,0c1.7,1.7,1.7,4.4,0,6.1C11.1,19.9,10,20.3,8.9,20.3z M8.9,13.2c-0.7,0-1.4,0.3-2,0.8c-1.1,1.1-1.1,2.9,0,4c1.1,1.1,2.9,1.1,4,0c1.1-1.1,1.1-2.9,0-4C10.3,13.5,9.6,13.2,8.9,13.2z"/>
<path d="M23.1,13.2c-1.1,0-2.2-0.4-3-1.3c-0.8-0.8-1.3-1.9-1.3-3c0-1.2,0.4-2.2,1.3-3c1.7-1.7,4.4-1.7,6.1,0c1.7,1.7,1.7,4.4,0,6.1C25.3,12.8,24.2,13.2,23.1,13.2z M23.1,6.1c-0.7,0-1.4,0.3-2,0.8c-0.5,0.5-0.8,1.2-0.8,2c0,0.7,0.3,1.5,0.8,2c1.1,1.1,2.9,1.1,4,0c1.1-1.1,1.1-2.9,0-4C24.5,6.4,23.8,6.1,23.1,6.1z"/>
<path d="M23.1,27.4c-1.1,0-2.2-0.4-3-1.3c-0.8-0.8-1.3-1.9-1.3-3s0.4-2.2,1.3-3c1.7-1.7,4.4-1.7,6.1,0s1.7,4.4,0,6.1C25.3,27,24.2,27.4,23.1,27.4z M23.1,20.3c-0.7,0-1.4,0.3-2,0.8c-0.5,0.5-0.8,1.2-0.8,2s0.3,1.5,0.8,2c1.1,1.1,2.9,1.1,4,0c1.1-1.1,1.1-2.9,0-4C24.5,20.6,23.8,20.3,23.1,20.3z"/>
<path d="M12.1,15.2c-0.3,0-0.5-0.2-0.7-0.4c-0.2-0.4,0-0.8,0.3-1l7.9-3.9c0.4-0.2,0.8,0,1,0.3c0.2,0.4,0,0.8-0.3,1l-7.9,3.9C12.3,15.1,12.2,15.2,12.1,15.2z"/>
<path d="M19.9,22.3c-0.1,0-0.2,0-0.3-0.1l-7.9-3.9c-0.4-0.2-0.5-0.6-0.3-1c0.2-0.4,0.6-0.5,1-0.3l7.9,3.9c0.4,0.2,0.5,0.6,0.3,1C20.5,22.1,20.2,22.3,19.9,22.3z"/>
</svg>
