<?xml version="1.0" encoding="utf-8"?>
<!-- Generator: Adobe Illustrator 19.2.1, SVG Export Plug-In . SVG Version: 6.00 Build 0)  -->
<svg version="1.1" id="Слой_1" xmlns="http://www.w3.org/2000/svg" xmlns:xlink="http://www.w3.org/1999/xlink" x="0px" y="0px"
	 viewBox="0 0 24 24" style="enable-background:new 0 0 24 24;" xml:space="preserve">
<g>
	<path d="M12,21.8c-5.4,0-9.8-4.4-9.8-9.8S6.6,2.3,12,2.3s9.8,4.4,9.8,9.8S17.4,21.8,12,21.8z M12,3.8c-4.5,0-8.3,3.7-8.3,8.3s3.7,8.3,8.3,8.3s8.3-3.7,8.3-8.3S16.5,3.8,12,3.8z"/>
	<path d="M12,12.8c-0.1,0-0.3,0-0.4-0.1l-3.5-2c-0.4-0.2-0.5-0.7-0.3-1c0.2-0.4,0.7-0.5,1-0.3l2.3,1.4V8c0-0.4,0.3-0.8,0.8-0.8s0.8,0.3,0.8,0.8v4c0,0.3-0.1,0.5-0.4,0.6C12.3,12.7,12.2,12.8,12,12.8z"/>
	<path d="M12,16.8c-0.4,0-0.8-0.3-0.8-0.8v-2.7l-2.3,1.4c-0.4,0.2-0.8,0.1-1-0.3s-0.1-0.8,0.3-1l3.5-2c0.2-0.1,0.5-0.1,0.8,0c0.2,0.1,0.4,0.4,0.4,0.6v4C12.8,16.4,12.4,16.8,12,16.8z"/>
	<path d="M15.5,14.7c-0.1,0-0.3,0-0.4-0.1l-3.4-2c-0.2-0.1-0.4-0.4-0.4-0.6s0.1-0.5,0.4-0.6l3.4-2c0.4-0.2,0.8-0.1,1,0.3c0.2,0.4,0.1,0.8-0.3,1L13.5,12l2.3,1.3c0.4,0.2,0.5,0.7,0.3,1C16,14.6,15.7,14.7,15.5,14.7z"/>
</g>
</svg>
