<?xml version="1.0" encoding="utf-8"?>
<!-- Generator: Adobe Illustrator 19.2.1, SVG Export Plug-In . SVG Version: 6.00 Build 0)  -->
<svg version="1.1" id="Слой_1" xmlns="http://www.w3.org/2000/svg" xmlns:xlink="http://www.w3.org/1999/xlink" x="0px" y="0px"
	 viewBox="0 0 48 48" style="enable-background:new 0 0 48 48;" xml:space="preserve">
<style type="text/css">
	.st0{fill:#FFFFFF;}
</style>
<path class="st0" d="M40,40.8H10c-0.4,0-0.8-0.3-0.8-0.8V8c0-0.4,0.3-0.8,0.8-0.8h30c2.6,0,4.8,2.1,4.8,4.8v24
	C44.8,38.6,42.6,40.8,40,40.8z M10.8,39.3H40c1.8,0,3.3-1.5,3.3-3.3V12c0-1.8-1.5-3.3-3.3-3.3H10.8V39.3z"/>
<path class="st0" d="M10,42.8c-0.4,0-0.8-0.3-0.8-0.8V8c0-0.7-0.6-1.3-1.3-1.3H6C5.6,6.8,5.3,6.4,5.3,6S5.6,5.3,6,5.3h2
	c1.5,0,2.8,1.2,2.8,2.8v34C10.8,42.4,10.4,42.8,10,42.8z"/>
<path class="st0" d="M10,36.8H6c-1.5,0-2.8-1.2-2.8-2.8v-2c0-1.5,1.2-2.8,2.8-2.8h4c0.4,0,0.8,0.3,0.8,0.8v6
	C10.8,36.4,10.4,36.8,10,36.8z M6,30.8c-0.7,0-1.3,0.6-1.3,1.3v2c0,0.7,0.6,1.3,1.3,1.3h3.3v-4.5H6z"/>
<path class="st0" d="M10,24.8H6c-1.5,0-2.8-1.2-2.8-2.8v-8c0-1.5,1.2-2.8,2.8-2.8h4c0.4,0,0.8,0.3,0.8,0.8v12
	C10.8,24.4,10.4,24.8,10,24.8z M6,12.8c-0.7,0-1.3,0.6-1.3,1.3v8c0,0.7,0.6,1.3,1.3,1.3h3.3V12.8H6z"/>
<path class="st0" d="M22,22.8c-0.4,0-0.8-0.3-0.8-0.8v-6c0-0.4,0.3-0.8,0.8-0.8s0.8,0.3,0.8,0.8v6C22.8,22.4,22.4,22.8,22,22.8z"/>
<path class="st0" d="M16,22.8c-0.4,0-0.8-0.3-0.8-0.8v-6c0-0.4,0.3-0.8,0.8-0.8s0.8,0.3,0.8,0.8v6C16.8,22.4,16.4,22.8,16,22.8z"/>
<path class="st0" d="M36.5,22.8h-8c-0.7,0-1.3-0.6-1.3-1.3v-5c0-0.7,0.6-1.3,1.3-1.3h8c0.7,0,1.3,0.6,1.3,1.3v5
	C37.8,22.2,37.2,22.8,36.5,22.8z M28.8,21.3h7.5v-4.5h-7.5V21.3z M36.5,16.8L36.5,16.8L36.5,16.8z"/>
<path class="st0" d="M37,34.8h-5c-0.4,0-0.8-0.3-0.8-0.8s0.3-0.8,0.8-0.8h5c0.4,0,0.8,0.3,0.8,0.8S37.4,34.8,37,34.8z"/>
<path class="st0" d="M37,28.8h-5c-0.4,0-0.8-0.3-0.8-0.8s0.3-0.8,0.8-0.8h5c0.4,0,0.8,0.3,0.8,0.8S37.4,28.8,37,28.8z"/>
<path class="st0" d="M25.5,34.8h-9c-0.7,0-1.3-0.6-1.3-1.3v-5c0-0.7,0.6-1.3,1.3-1.3h9c0.7,0,1.3,0.6,1.3,1.3v5
	C26.8,34.2,26.2,34.8,25.5,34.8z M16.8,33.3h8.5v-4.5h-8.5V33.3z"/>
</svg>
