<?xml version="1.0" encoding="utf-8"?>
<!-- Generator: Adobe Illustrator 19.2.1, SVG Export Plug-In . SVG Version: 6.00 Build 0)  -->
<svg version="1.1" id="Слой_1" xmlns="http://www.w3.org/2000/svg" xmlns:xlink="http://www.w3.org/1999/xlink" x="0px" y="0px"
	 viewBox="0 0 48 48" style="enable-background:new 0 0 48 48;" xml:space="preserve">
<path d="M24,16.7c-0.4,0-0.8-0.3-0.8-0.8V6c0-0.4,0.3-0.8,0.8-0.8s0.8,0.3,0.8,0.8v10C24.8,16.4,24.4,16.7,24,16.7z"/>
<path d="M18,34.8h-4c-0.4,0-0.8-0.3-0.8-0.8s0.3-0.8,0.8-0.8h4c0.4,0,0.8,0.3,0.8,0.8S18.4,34.8,18,34.8z"/>
<path d="M42,20.7c-0.4,0-0.8-0.3-0.8-0.8c0-1.8-1.5-3.3-3.3-3.3H10c-1.8,0-3.3,1.5-3.3,3.3c0,0.4-0.3,0.8-0.8,0.8S5.2,20.4,5.2,20c0-2.6,2.1-4.8,4.8-4.8h28c2.6,0,4.8,2.1,4.8,4.8C42.8,20.4,42.4,20.7,42,20.7z"/>
<path d="M38,42.8H10.5c-2.9,0-5.3-2.4-5.3-5.3V17c0-1.2,0.2-2.3,0.7-3.4l2.2-5.1C9,6.5,10.9,5.2,13,5.2c0,0,0,0,0,0H35h0c2.1,0,4,1.3,4.8,3.2l2.2,5.1c0.5,1.1,0.7,2.3,0.7,3.4v21C42.8,40.6,40.6,42.8,38,42.8z M13,6.7c-1.5,0-2.9,0.9-3.4,2.3l-2.2,5.1C6.9,15.1,6.7,16,6.7,17v20.5c0,2.1,1.7,3.8,3.8,3.8H38c1.8,0,3.3-1.5,3.3-3.3V17c0-1-0.2-1.9-0.6-2.9L38.5,9c-0.6-1.4-1.9-2.3-3.4-2.3c0,0,0,0,0,0H13C13,6.7,13,6.7,13,6.7z"/>
</svg>
