<svg xmlns="http://www.w3.org/2000/svg" viewBox="0 0 48 48">
<path d="M30,38.8C30,38.8,30,38.8,30,38.8H18c-4.8,0-8.7-3.9-8.8-8.8V18c0-4.8,3.9-8.7,8.8-8.8h12c4.8,0,8.7,3.9,8.8,8.8v12C38.7,34.8,34.8,38.7,30,38.8z M18,10.7c-4,0-7.2,3.3-7.3,7.3v12c0,4,3.3,7.2,7.3,7.3h12c4,0,7.2-3.3,7.3-7.3V18c0-4-3.3-7.2-7.3-7.3H18z"/>
<path d="M26.8,10.7c-0.4,0-0.8-0.3-0.8-0.8V6c0-0.4,0.3-0.8,0.8-0.8s0.8,0.3,0.8,0.8v4C27.5,10.4,27.2,10.7,26.8,10.7z"/>
<path d="M32.3,11.1c-0.4,0-0.8-0.3-0.8-0.8V6c0-0.4,0.3-0.8,0.8-0.8s0.8,0.3,0.8,0.8v4.3C33.1,10.8,32.7,11.1,32.3,11.1z"/>
<path d="M15.7,11.1c-0.4,0-0.8-0.3-0.8-0.8V6c0-0.4,0.3-0.8,0.8-0.8s0.8,0.3,0.8,0.8v4.3C16.4,10.8,16.1,11.1,15.7,11.1z"/>
<path d="M21.2,10.7c-0.4,0-0.8-0.3-0.8-0.8V6c0-0.4,0.3-0.8,0.8-0.8S22,5.6,22,6v4C22,10.4,21.6,10.7,21.2,10.7z"/>
<path d="M26.8,42.8c-0.4,0-0.8-0.3-0.8-0.8v-4c0-0.4,0.3-0.8,0.8-0.8s0.8,0.3,0.8,0.8v4C27.5,42.4,27.2,42.8,26.8,42.8z"/>
<path d="M32.3,42.8c-0.4,0-0.8-0.3-0.8-0.8v-4.3c0-0.4,0.3-0.8,0.8-0.8s0.8,0.3,0.8,0.8V42C33.1,42.4,32.7,42.8,32.3,42.8z"/>
<path d="M15.7,42.8c-0.4,0-0.8-0.3-0.8-0.8v-4.3c0-0.4,0.3-0.8,0.8-0.8s0.8,0.3,0.8,0.8V42C16.4,42.4,16.1,42.8,15.7,42.8z"/>
<path d="M21.2,42.8c-0.4,0-0.8-0.3-0.8-0.8v-4c0-0.4,0.3-0.8,0.8-0.8S22,37.6,22,38v4C22,42.4,21.6,42.8,21.2,42.8z"/>
<path d="M42,27.5h-4c-0.4,0-0.8-0.3-0.8-0.8S37.6,26,38,26h4c0.4,0,0.8,0.3,0.8,0.8S42.4,27.5,42,27.5z"/>
<path d="M42,33.1h-4.3c-0.4,0-0.8-0.3-0.8-0.8s0.3-0.8,0.8-0.8H42c0.4,0,0.8,0.3,0.8,0.8S42.4,33.1,42,33.1z"/>
<path d="M42,16.4h-4.3c-0.4,0-0.8-0.3-0.8-0.8s0.3-0.8,0.8-0.8H42c0.4,0,0.8,0.3,0.8,0.8S42.4,16.4,42,16.4z"/>
<path d="M42,22h-4c-0.4,0-0.8-0.3-0.8-0.8s0.3-0.8,0.8-0.8h4c0.4,0,0.8,0.3,0.8,0.8S42.4,22,42,22z"/>
<path d="M10,27.5H6c-0.4,0-0.8-0.3-0.8-0.8S5.6,26,6,26h4c0.4,0,0.8,0.3,0.8,0.8S10.4,27.5,10,27.5z"/>
<path d="M10.3,33.1H6c-0.4,0-0.8-0.3-0.8-0.8s0.3-0.8,0.8-0.8h4.3c0.4,0,0.8,0.3,0.8,0.8S10.8,33.1,10.3,33.1z"/>
<path d="M10.3,16.4H6c-0.4,0-0.8-0.3-0.8-0.8s0.3-0.8,0.8-0.8h4.3c0.4,0,0.8,0.3,0.8,0.8S10.8,16.4,10.3,16.4z"/>
<path d="M10,22H6c-0.4,0-0.8-0.3-0.8-0.8s0.3-0.8,0.8-0.8h4c0.4,0,0.8,0.3,0.8,0.8S10.4,22,10,22z"/>
<path d="M28,32.8C28,32.8,28,32.8,28,32.8h-8c-2.6,0-4.7-2.1-4.8-4.7v-8c0-2.6,2.1-4.7,4.7-4.8h8c2.6,0,4.7,2.1,4.8,4.7v8C32.7,30.6,30.6,32.7,28,32.8z M20,16.7c-1.8,0-3.2,1.5-3.3,3.3v8c0,1.8,1.5,3.2,3.3,3.3h8c1.8,0,3.2-1.5,3.3-3.3v-8c0-1.8-1.5-3.2-3.3-3.3H20z"/>
</svg>
