<?xml version="1.0" encoding="utf-8"?>
<!-- Generator: Adobe Illustrator 19.2.1, SVG Export Plug-In . SVG Version: 6.00 Build 0)  -->
<svg version="1.1" id="Слой_1" xmlns="http://www.w3.org/2000/svg" xmlns:xlink="http://www.w3.org/1999/xlink" x="0px" y="0px"
	 viewBox="0 0 48 48" style="enable-background:new 0 0 48 48;" xml:space="preserve">
<style type="text/css">
	.st0{fill:#FFFFFF;}
</style>
<path class="st0" d="M35,18.7h-7c-2.6,0-4.8-2.1-4.8-4.8v-4c0-2.6,2.1-4.8,4.8-4.8h7c1,0,1.8,0.8,1.8,1.8v10
	C36.8,18,36,18.7,35,18.7z M28,6.7c-1.8,0-3.3,1.5-3.3,3.3v4c0,1.8,1.5,3.3,3.3,3.3h7c0.1,0,0.3-0.1,0.3-0.3V7
	c0-0.1-0.1-0.3-0.3-0.3H28z"/>
<path class="st0" d="M41,16.7h-5c-0.4,0-0.8-0.3-0.8-0.8s0.3-0.8,0.8-0.8h5c0.1,0,0.3-0.1,0.3-0.3V9c0-0.1-0.1-0.3-0.3-0.3h-5
	c-0.4,0-0.8-0.3-0.8-0.8s0.3-0.8,0.8-0.8h5c1,0,1.8,0.8,1.8,1.8v6C42.8,16,42,16.7,41,16.7z"/>
<path class="st0" d="M20,42.8h-7c-1,0-1.8-0.8-1.8-1.8V31c0-1,0.8-1.8,1.8-1.8h7c2.6,0,4.8,2.1,4.8,4.8v4
	C24.8,40.6,22.6,42.8,20,42.8z M13,30.8c-0.1,0-0.3,0.1-0.3,0.3v10c0,0.1,0.1,0.3,0.3,0.3h7c1.8,0,3.3-1.5,3.3-3.3v-4
	c0-1.8-1.5-3.3-3.3-3.3H13z"/>
<path class="st0" d="M12,40.8H7c-1,0-1.8-0.8-1.8-1.8v-6c0-1,0.8-1.8,1.8-1.8h5c0.4,0,0.8,0.3,0.8,0.8s-0.3,0.8-0.8,0.8H7
	c-0.1,0-0.3,0.1-0.3,0.3v6c0,0.1,0.1,0.3,0.3,0.3h5c0.4,0,0.8,0.3,0.8,0.8S12.4,40.8,12,40.8z"/>
<path class="st0" d="M36,36.8H24c-0.4,0-0.8-0.3-0.8-0.8s0.3-0.8,0.8-0.8h12c2.9,0,5.3-2.4,5.3-5.3c0-2.9-2.4-5.3-5.3-5.3H12
	c-3.7,0-6.8-3-6.8-6.8s3-6.8,6.8-6.8h12c0.4,0,0.8,0.3,0.8,0.8s-0.3,0.8-0.8,0.8H12c-2.9,0-5.3,2.4-5.3,5.3s2.4,5.3,5.3,5.3h24
	c3.7,0,6.8,3,6.8,6.8C42.8,33.7,39.7,36.8,36,36.8z"/>
</svg>
