<svg xmlns="http://www.w3.org/2000/svg" viewBox="0 0 48 48">
<path d="M30,36.8c-0.4,0-0.8-0.3-0.8-0.8V26c0-0.4,0.3-0.8,0.8-0.8s0.8,0.3,0.8,0.8v10C30.8,36.4,30.4,36.8,30,36.8z"/>
<path d="M11.5,28.8h-5c-0.7,0-1.3-0.6-1.3-1.3v-15c0-0.7,0.6-1.3,1.3-1.3h5c0.7,0,1.3,0.6,1.3,1.3v15C12.7,28.2,12.2,28.8,11.5,28.8z M6.7,27.3h4.5V12.7H6.7V27.3z"/>
<path d="M12,34.8H6c-0.4,0-0.8-0.3-0.8-0.8s0.3-0.8,0.8-0.8h6c0.4,0,0.8,0.3,0.8,0.8S12.4,34.8,12,34.8z"/>
<path d="M35.5,18.7h-5c-0.7,0-1.3-0.6-1.3-1.3v-5c0-0.7,0.6-1.3,1.3-1.3h5c0.7,0,1.3,0.6,1.3,1.3v5C36.8,18.2,36.2,18.7,35.5,18.7z M30.8,17.2h4.5v-4.5h-4.5V17.2z"/>
<path d="M35.6,36.8c-0.4,0-0.8-0.3-0.8-0.8V26c0-0.4,0.3-0.8,0.8-0.8s0.8,0.3,0.8,0.8v10C36.3,36.4,36,36.8,35.6,36.8z"/>
<path d="M24,18.7h-6c-0.4,0-0.8-0.3-0.8-0.8s0.3-0.8,0.8-0.8h6c0.4,0,0.7,0.3,0.7,0.8S24.4,18.7,24,18.7z"/>
<path d="M24,12.7h-6c-0.4,0-0.8-0.3-0.8-0.8s0.3-0.8,0.8-0.8h6c0.4,0,0.7,0.3,0.7,0.8S24.4,12.7,24,12.7z"/>
<path d="M38,42.8H14c-2.6,0-4.8-2.1-4.8-4.8V28c0-0.4,0.3-0.8,0.8-0.8s0.8,0.3,0.8,0.8v10c0,1.8,1.5,3.3,3.3,3.3h24c1.8,0,3.3-1.5,3.3-3.3V10c0-1.8-1.5-3.3-3.3-3.3H14c-1.8,0-3.3,1.5-3.3,3.3v2c0,0.4-0.3,0.8-0.8,0.8S9.2,12.4,9.2,12v-2c0-2.6,2.1-4.8,4.8-4.8h24c2.6,0,4.8,2.1,4.8,4.8v28C42.8,40.6,40.6,42.8,38,42.8z"/>
<path d="M24,28.8h-6c-0.4,0-0.8-0.3-0.8-0.8v-2c0-0.4,0.3-0.8,0.8-0.8s0.8,0.3,0.8,0.8v1.3H24c0.4,0,0.7,0.3,0.7,0.8S24.4,28.8,24,28.8z"/>
<path d="M24,36.8h-6c-0.4,0-0.8-0.3-0.8-0.8v-2c0-0.4,0.3-0.8,0.8-0.8s0.8,0.3,0.8,0.8v1.3H24c0.4,0,0.7,0.3,0.7,0.8S24.4,36.8,24,36.8z"/>
</svg>
