<?xml version="1.0" encoding="utf-8"?>
<!-- Generator: Adobe Illustrator 19.2.1, SVG Export Plug-In . SVG Version: 6.00 Build 0)  -->
<svg version="1.1" id="Слой_1" xmlns="http://www.w3.org/2000/svg" xmlns:xlink="http://www.w3.org/1999/xlink" x="0px" y="0px"
	 viewBox="0 0 48 48" style="enable-background:new 0 0 48 48;" xml:space="preserve">
<path d="M18.9,30.8h-2.4c-1.7,0-3.1-1.4-3.1-3.2v-7.2c0-1.7,1.4-3.1,3.1-3.1h2.4c1.7,0,3.1,1.4,3.1,3.1v7.2C22,29.3,20.6,30.8,18.9,30.8z M16.5,18.8c-0.9,0-1.6,0.7-1.6,1.6v7.2c0,0.9,0.7,1.7,1.6,1.7h2.4c0.9,0,1.6-0.7,1.6-1.7v-7.2c0-0.9-0.7-1.6-1.6-1.6H16.5z"/>
<path d="M31.5,30.8h-2.4c-1.7,0-3.1-1.4-3.1-3.2c0-0.4,0.3-0.8,0.8-0.8s0.8,0.3,0.8,0.8c0,0.9,0.7,1.7,1.6,1.7h2.4c0.9,0,1.7-0.7,1.7-1.7v-0.7c0-0.7-0.5-1.3-1.1-1.6l-3.9-1.3c-1.3-0.4-2.2-1.6-2.2-3v-0.7c0-1.7,1.4-3.1,3.1-3.1h2.4c1.7,0,3.2,1.4,3.2,3.1c0,0.4-0.3,0.8-0.8,0.8s-0.8-0.3-0.8-0.8c0-0.9-0.7-1.6-1.7-1.6h-2.4c-0.9,0-1.6,0.7-1.6,1.6v0.7c0,0.7,0.5,1.3,1.1,1.6l3.9,1.3c1.3,0.4,2.2,1.6,2.2,3v0.7C34.7,29.3,33.2,30.8,31.5,30.8z"/>
<path d="M28,42.8h-8c-8.1,0-14.8-6.6-14.8-14.8v-8c0-8.1,6.6-14.8,14.8-14.8h8c8.1,0,14.8,6.6,14.8,14.8v8C42.8,36.1,36.1,42.8,28,42.8z M20,6.8C12.7,6.8,6.8,12.7,6.8,20v8c0,7.3,5.9,13.3,13.3,13.3h8c7.3,0,13.3-5.9,13.3-13.3v-8c0-7.3-5.9-13.3-13.3-13.3H20z"/>
</svg>
