<svg xmlns="http://www.w3.org/2000/svg" viewBox="0 0 48 49">
<path d="M16.2,44c-0.7,0-1.3-0.3-1.8-0.8l-8.7-8.9c-0.5-0.5-0.7-1.1-0.7-1.8c0-0.7,0.3-1.4,0.7-1.8l9-9.2c0.7-0.8,1.8-1,2.7-0.6c0.9,0.4,1.9,0.2,2.6-0.5c0.7-0.7,0.9-1.7,0.5-2.6c-0.4-1-0.2-2.1,0.6-2.8l9-9.1c1-1,2.7-1,3.7,0l8.7,8.9c0.5,0.5,0.7,1.1,0.7,1.8s-0.3,1.4-0.8,1.8L18,43.2C17.6,43.7,16.9,44,16.2,44z M16.5,22.1c-0.3,0-0.5,0.1-0.7,0.3c0,0,0,0,0,0l-9,9.2c-0.2,0.2-0.3,0.5-0.3,0.8c0,0.3,0.1,0.6,0.3,0.8l8.7,8.9c0.4,0.4,1.1,0.4,1.5,0l24.3-24.8c0.2-0.2,0.3-0.5,0.3-0.8s-0.1-0.6-0.3-0.8l-8.7-8.9c-0.4-0.4-1.1-0.4-1.5,0l-9,9.2c-0.3,0.3-0.4,0.8-0.3,1.2c0.6,1.4,0.3,3.1-0.8,4.2c-1.1,1.1-2.8,1.4-4.2,0.8C16.7,22.2,16.6,22.1,16.5,22.1z M15.2,22L15.2,22L15.2,22z"/>
<path d="M25.9,15.3c-0.2,0-0.4-0.1-0.5-0.2l-1.8-1.8c-0.3-0.3-0.3-0.8,0-1.1c0.3-0.3,0.8-0.3,1.1,0l1.8,1.8c0.3,0.3,0.3,0.8,0,1.1C26.3,15.3,26.1,15.3,25.9,15.3z"/>
<path d="M29.8,11.4c-0.2,0-0.4-0.1-0.5-0.2l-1.8-1.8c-0.3-0.3-0.3-0.8,0-1.1c0.3-0.3,0.8-0.3,1.1,0l1.8,1.8c0.3,0.3,0.3,0.8,0,1.1C30.2,11.3,30,11.4,29.8,11.4z"/>
<path d="M14.3,27.2c-0.2,0-0.4-0.1-0.5-0.2L12,25.2c-0.3-0.3-0.3-0.8,0-1.1s0.8-0.3,1.1,0l1.8,1.8c0.3,0.3,0.3,0.8,0,1.1C14.7,27.2,14.5,27.2,14.3,27.2z"/>
<path d="M10.4,31.2c-0.2,0-0.4-0.1-0.5-0.2l-1.8-1.8c-0.3-0.3-0.3-0.8,0-1.1c0.3-0.3,0.8-0.3,1.1,0l1.8,1.8c0.3,0.3,0.3,0.8,0,1.1C10.8,31.1,10.6,31.2,10.4,31.2z"/>
<path d="M15.6,36.5c-0.2,0-0.4-0.1-0.5-0.2l-1.3-1.3c-0.3-0.3-0.3-0.8,0-1.1c0.3-0.3,0.8-0.3,1.1,0l0.8,0.8l2.8-2.9L17.6,31c-0.3-0.3-0.3-0.8,0-1.1c0.3-0.3,0.8-0.3,1.1,0l1.3,1.3c0.3,0.3,0.3,0.8,0,1l-3.9,4C16,36.4,15.8,36.5,15.6,36.5L15.6,36.5z"/>
<path d="M23.3,28.6C23.3,28.6,23.3,28.6,23.3,28.6c-0.2,0-0.4-0.1-0.5-0.2L21.5,27c-0.3-0.3-0.3-0.8,0-1.1c0.3-0.3,0.8-0.3,1.1,0l0.8,0.8l2.8-2.9L25.4,23c-0.3-0.3-0.3-0.8,0-1.1c0.3-0.3,0.8-0.3,1.1,0l1.3,1.3c0.3,0.3,0.3,0.8,0,1.1l-3.9,4C23.7,28.5,23.6,28.6,23.3,28.6z"/>
<path d="M31.1,20.6c-0.2,0-0.4-0.1-0.5-0.2l-1.3-1.3c-0.3-0.3-0.3-0.8,0-1.1c0.3-0.3,0.8-0.3,1.1,0l0.8,0.8l2.8-2.9l-0.8-0.8c-0.3-0.3-0.3-0.8,0-1.1c0.3-0.3,0.8-0.3,1.1,0l1.3,1.3c0.3,0.3,0.3,0.8,0,1l-3.9,4C31.5,20.5,31.3,20.6,31.1,20.6z"/>
</svg>
