<?xml version="1.0" encoding="utf-8"?>
<!-- Generator: Adobe Illustrator 19.2.1, SVG Export Plug-In . SVG Version: 6.00 Build 0)  -->
<svg version="1.1" id="Слой_1" xmlns="http://www.w3.org/2000/svg" xmlns:xlink="http://www.w3.org/1999/xlink" x="0px" y="0px"
	 viewBox="0 0 64 64" style="enable-background:new 0 0 64 64;" xml:space="preserve">
<path d="M21.6,57.4c-0.9,0-1.8-0.4-2.4-1L7.6,44.8c-0.6-0.6-1-1.5-1-2.4c0-0.9,0.4-1.8,1-2.4l12-12c0.9-1,2.4-1.3,3.6-0.8c1.2,0.5,2.5,0.3,3.4-0.6c0.9-0.9,1.1-2.2,0.6-3.4c-0.5-1.3-0.2-2.8,0.8-3.7L40,7.6c1.3-1.3,3.6-1.3,4.9,0l11.6,11.6c0.6,0.7,1,1.5,1,2.4c0,0.9-0.4,1.8-1,2.4L24,56.4C23.4,57.1,22.5,57.4,21.6,57.4z M21.9,29c-0.4,0-0.7,0.1-1,0.4c0,0,0,0,0,0l-12,12c-0.3,0.3-0.4,0.6-0.4,1c0,0.4,0.1,0.7,0.4,1L20.6,55c0.5,0.5,1.5,0.5,2,0L55,22.6c0.3-0.3,0.4-0.6,0.4-1c0-0.4-0.2-0.7-0.4-1L43.4,9c-0.5-0.5-1.5-0.5-2,0l-12,12c-0.4,0.4-0.6,1-0.4,1.5c0.8,1.8,0.4,4.1-1,5.6c-1.5,1.5-3.7,1.9-5.6,1C22.2,29,22.1,29,21.9,29z M20.2,28.7L20.2,28.7L20.2,28.7z"/>
<path d="M34.6,20c-0.3,0-0.5-0.1-0.7-0.3l-2.3-2.3c-0.4-0.4-0.4-1,0-1.4s1-0.4,1.4,0l2.3,2.3c0.4,0.4,0.4,1,0,1.4C35.1,19.9,34.8,20,34.6,20z"/>
<path d="M39.8,14.9c-0.3,0-0.5-0.1-0.7-0.3l-2.3-2.3c-0.4-0.4-0.4-1,0-1.4s1-0.4,1.4,0l2.3,2.3c0.4,0.4,0.4,1,0,1.4C40.3,14.8,40,14.9,39.8,14.9z"/>
<path d="M19,35.6c-0.3,0-0.5-0.1-0.7-0.3L16,33c-0.4-0.4-0.4-1,0-1.4s1-0.4,1.4,0l2.3,2.3c0.4,0.4,0.4,1,0,1.4C19.5,35.5,19.3,35.6,19,35.6z"/>
<path d="M13.9,40.8c-0.3,0-0.5-0.1-0.7-0.3l-2.3-2.3c-0.4-0.4-0.4-1,0-1.4s1-0.4,1.4,0l2.3,2.3c0.4,0.4,0.4,1,0,1.4C14.4,40.7,14.1,40.8,13.9,40.8z"/>
</svg>
