<?xml version="1.0" encoding="utf-8"?>
<!-- Generator: Adobe Illustrator 19.2.1, SVG Export Plug-In . SVG Version: 6.00 Build 0)  -->
<svg version="1.1" id="Слой_1" xmlns="http://www.w3.org/2000/svg" xmlns:xlink="http://www.w3.org/1999/xlink" x="0px" y="0px"
	 viewBox="0 0 64 64" style="enable-background:new 0 0 64 64;" xml:space="preserve">
<g>
	<path fill="#7D7EBA" d="M10.4,47.9c-0.3,0-0.5-0.1-0.7-0.3L4,41.9c-0.7-0.7-1-1.5-1-2.5c0-0.9,0.4-1.8,1-2.5l3.3-3.3c0,0,0,0,0,0c0,0,0,0,0,0l5.2-5.2c0,0,0,0,0,0l3.6-3.6c0.9-1,2.4-1.3,3.7-0.8c1.2,0.5,2.6,0.3,3.5-0.6c0.9-0.9,1.1-2.3,0.6-3.4c-0.5-1.3-0.2-2.8,0.8-3.8l3.6-3.6c0,0,0,0,0,0c0,0,0,0,0,0l5.2-5.2c0,0,0,0,0,0c0,0,0,0,0,0L36.9,4c0.6-0.6,1.5-1,2.5-1c0.9,0,1.8,0.4,2.5,1l6.2,6c0.4,0.4,0.4,1,0,1.4c-0.4,0.4-1,0.4-1.4,0l-6.2-6c-0.6-0.6-1.5-0.6-2.1,0L35.8,8l1.7,1.7c0.4,0.4,0.4,1,0,1.4c-0.4,0.4-1,0.4-1.4,0l-1.7-1.7l-3.8,3.8l1.7,1.7c0.4,0.4,0.4,1,0,1.4c-0.4,0.4-1,0.4-1.4,0l-1.7-1.7l-2.9,2.9c-0.4,0.4-0.6,1-0.4,1.5c0.9,1.9,0.4,4.2-1.1,5.7c-1.5,1.5-3.8,1.9-5.7,1c-0.5-0.2-1.1-0.1-1.4,0.4l-2.9,2.9l1.7,1.7c0.4,0.4,0.4,1,0,1.4s-1,0.4-1.4,0l-1.7-1.7l-3.8,3.8l1.7,1.7c0.4,0.4,0.4,1,0,1.4s-1,0.4-1.4,0L8,35.8l-2.6,2.6C5.2,38.6,5,39,5,39.4c0,0.4,0.2,0.8,0.4,1l5.7,5.7c0.4,0.4,0.4,1,0,1.4C10.9,47.8,10.7,47.9,10.4,47.9z"/>
	<path d="M24.6,61c-0.9,0-1.8-0.4-2.5-1L10.3,48.2c-0.7-0.7-1-1.5-1-2.5c0-0.9,0.4-1.8,1-2.5l3.3-3.3c0,0,0,0,0,0c0,0,0,0,0,0l5.2-5.2c0,0,0,0,0,0c0,0,0,0,0,0l3.6-3.6c1-1,2.4-1.3,3.7-0.8c1.2,0.6,2.6,0.3,3.5-0.6c0.9-0.9,1.1-2.3,0.6-3.4c-0.5-1.3-0.2-2.8,0.8-3.8l3.6-3.6c0,0,0,0,0,0c0,0,0,0,0,0l5.2-5.2c0,0,0,0,0,0c0,0,0,0,0,0l3.3-3.3c0.6-0.6,1.5-1,2.5-1c0.9,0,1.8,0.4,2.5,1L60,22.1c0.7,0.7,1,1.5,1,2.5s-0.4,1.8-1,2.5L27.1,60C26.4,60.6,25.5,61,24.6,61z M14.3,42.1l-2.6,2.6c-0.3,0.3-0.4,0.6-0.4,1c0,0.4,0.2,0.8,0.4,1l11.8,11.8c0.6,0.6,1.5,0.6,2.1,0l32.9-32.9c0.3-0.3,0.4-0.6,0.4-1s-0.2-0.8-0.4-1L46.7,11.8c-0.5-0.5-1.5-0.5-2.1,0l-2.6,2.6l1.7,1.7c0.4,0.4,0.4,1,0,1.4c-0.4,0.4-1,0.4-1.4,0l-1.7-1.7l-3.8,3.8l1.7,1.7c0.4,0.4,0.4,1,0,1.4c-0.4,0.4-1,0.4-1.4,0l-1.7-1.7l-2.9,2.9c-0.4,0.4-0.6,1-0.4,1.5c0.9,1.9,0.4,4.2-1.1,5.7c-1.5,1.5-3.8,1.9-5.7,1c-0.5-0.2-1.1-0.1-1.4,0.4c0,0,0,0,0,0L21,35.4l1.7,1.7c0.4,0.4,0.4,1,0,1.4c-0.4,0.4-1,0.4-1.4,0l-1.7-1.7l-3.8,3.8l1.7,1.7c0.4,0.4,0.4,1,0,1.4s-1,0.4-1.4,0L14.3,42.1z M23.2,31.8L23.2,31.8L23.2,31.8z"/>
</g>
</svg>
