<?xml version="1.0" encoding="utf-8"?>
<!-- Generator: Adobe Illustrator 19.2.1, SVG Export Plug-In . SVG Version: 6.00 Build 0)  -->
<svg version="1.1" id="Слой_1" xmlns="http://www.w3.org/2000/svg" xmlns:xlink="http://www.w3.org/1999/xlink" x="0px" y="0px"
	 viewBox="0 0 48 48" style="enable-background:new 0 0 48 48;" xml:space="preserve">
<style type="text/css">
	.st0{fill:#FFFFFF;}
</style>
<path class="st0" d="M24,28.8c-6.5,0-11.8-5.3-11.8-11.8S17.5,5.3,24,5.3c6.5,0,11.8,5.3,11.8,11.8S30.5,28.8,24,28.8z M24,6.8
	c-5.7,0-10.3,4.6-10.3,10.3S18.3,27.3,24,27.3c5.7,0,10.3-4.6,10.3-10.3S29.7,6.8,24,6.8z"/>
<path class="st0" d="M32,42.8c-3.2,0-6.3-1.3-8.6-3.7c-0.3-0.3-0.3-0.8,0-1.1c0.3-0.3,0.8-0.3,1.1,0c3,3.2,7.7,4.1,11.7,2.3
	c4-1.8,6.4-6,6-10.3c-0.4-4.4-3.6-8-7.9-9c-0.4-0.1-0.7-0.5-0.6-0.9c0.1-0.4,0.5-0.7,0.9-0.6c4.9,1.1,8.5,5.3,9,10.3
	c0.5,5-2.2,9.8-6.8,11.9C35.3,42.4,33.7,42.8,32,42.8z"/>
<path class="st0" d="M16,42.7c-2,0-4-0.5-5.8-1.6C6,38.8,3.7,34.1,4.4,29.3c0.7-4.8,4.2-8.6,8.9-9.7c0.4-0.1,0.8,0.2,0.9,0.6
	c0.1,0.4-0.2,0.8-0.6,0.9c-4.1,1-7.2,4.3-7.8,8.5s1.4,8.3,5.1,10.4c3.7,2.1,8.2,1.7,11.5-0.9c3.3-2.7,4.6-7,3.3-11
	c-0.1-0.4,0.1-0.8,0.5-0.9c0.4-0.1,0.8,0.1,0.9,0.5c1.5,4.6-0.1,9.6-3.8,12.7C21.2,41.9,18.6,42.7,16,42.7z"/>
</svg>
