<svg xmlns="http://www.w3.org/2000/svg" viewBox="0 0 48 48">
<path d="M24.7,28.8h-3.8c-0.4,0-0.8-0.3-0.8-0.8s0.3-0.8,0.8-0.8h3.8c0.7,0,1.3-0.6,1.3-1.3c0-0.7-0.6-1.3-1.2-1.3h-2c-1.5,0-2.7-1.2-2.7-2.7c0-1.5,1.2-2.8,2.8-2.8H26c0.4,0,0.8,0.3,0.8,0.8s-0.3,0.8-0.8,0.8h-3.3c-0.7,0-1.3,0.6-1.3,1.3c0,0.7,0.6,1.2,1.2,1.2h2c1.5,0,2.7,1.2,2.7,2.7C27.4,27.5,26.2,28.8,24.7,28.8z"/>
<path d="M14,28.8h-3.8c-0.4,0-0.8-0.3-0.8-0.8s0.3-0.8,0.8-0.8H14c0.7,0,1.3-0.6,1.3-1.3c0-0.7-0.6-1.3-1.2-1.3h-2c-1.5,0-2.7-1.2-2.7-2.7c0-1.5,1.2-2.8,2.8-2.8h3.3c0.4,0,0.8,0.3,0.8,0.8s-0.3,0.8-0.8,0.8H12c-0.7,0-1.3,0.6-1.3,1.3c0,0.7,0.6,1.2,1.2,1.2h2c1.5,0,2.7,1.2,2.7,2.7C16.8,27.5,15.5,28.8,14,28.8z"/>
<path d="M36,28.8h-4c-0.4,0-0.8-0.3-0.8-0.8v-8c0-0.4,0.3-0.8,0.8-0.8h4c1.5,0,2.8,1.2,2.8,2.8v4C38.8,27.5,37.5,28.8,36,28.8z M32.8,27.3H36c0.7,0,1.3-0.6,1.3-1.3v-4c0-0.7-0.6-1.3-1.3-1.3h-3.3V27.3z"/>
<path d="M39.6,44.8H8.4c-2.9,0-5.2-2.3-5.2-5.2V8.4c0-2.9,2.3-5.2,5.2-5.2h31.1c2.9,0,5.2,2.3,5.2,5.2v31.1C44.8,42.4,42.4,44.8,39.6,44.8z M8.4,4.8c-2,0-3.7,1.7-3.7,3.7v31.1c0,2,1.7,3.7,3.7,3.7h31.1c2,0,3.7-1.7,3.7-3.7V8.4c0-2-1.7-3.7-3.7-3.7H8.4z"/>
</svg>
