<?xml version="1.0" encoding="utf-8"?>
<!-- Generator: Adobe Illustrator 19.2.1, SVG Export Plug-In . SVG Version: 6.00 Build 0)  -->
<svg version="1.1" id="Слой_1" xmlns="http://www.w3.org/2000/svg" xmlns:xlink="http://www.w3.org/1999/xlink" x="0px" y="0px"
	 viewBox="0 0 48 48">
<path d="M24.7,22.8h-3.8c-0.4,0-0.8-0.3-0.8-0.8s0.3-0.8,0.8-0.8h3.8c0.7,0,1.3-0.6,1.3-1.3c0-0.7-0.6-1.3-1.2-1.3h-2c-1.5,0-2.7-1.2-2.7-2.7c0-1.5,1.2-2.8,2.8-2.8H26c0.4,0,0.8,0.3,0.8,0.8s-0.3,0.8-0.8,0.8h-3.3c-0.7,0-1.3,0.6-1.3,1.3c0,0.7,0.6,1.2,1.2,1.2h2c1.5,0,2.7,1.2,2.7,2.7C27.5,21.5,26.2,22.8,24.7,22.8z"/>
<path d="M14,22.8h-3.8c-0.4,0-0.8-0.3-0.8-0.8s0.3-0.8,0.8-0.8H14c0.7,0,1.3-0.6,1.3-1.3c0-0.7-0.6-1.3-1.2-1.3h-2c-1.5,0-2.7-1.2-2.7-2.7c0-1.5,1.2-2.8,2.8-2.8h3.3c0.4,0,0.8,0.3,0.8,0.8s-0.3,0.8-0.8,0.8H12c-0.7,0-1.3,0.6-1.3,1.3c0,0.7,0.6,1.2,1.2,1.2h2c1.5,0,2.7,1.2,2.7,2.7C16.8,21.5,15.5,22.8,14,22.8z"/>
<path d="M36,22.8h-4c-0.4,0-0.8-0.3-0.8-0.8v-8c0-0.4,0.3-0.8,0.8-0.8h4c1.5,0,2.8,1.2,2.8,2.8v4C38.8,21.5,37.5,22.8,36,22.8z M32.8,21.3H36c0.7,0,1.3-0.6,1.3-1.3v-4c0-0.7-0.6-1.3-1.3-1.3h-3.3V21.3z"/>
<path d="M39.6,44.8H8.4c-2.9,0-5.2-2.3-5.2-5.2V8.4c0-2.9,2.3-5.2,5.2-5.2h31.1c2.9,0,5.2,2.3,5.2,5.2v31.1C44.8,42.4,42.4,44.8,39.6,44.8z M8.4,4.8c-2,0-3.7,1.7-3.7,3.7v31.1c0,2,1.7,3.7,3.7,3.7h31.1c2,0,3.7-1.7,3.7-3.7V8.4c0-2-1.7-3.7-3.7-3.7H8.4z"/>
<path d="M12,37.8c-0.3,0-0.5-0.1-0.6-0.4l-3.6-5.8V37c0,0.4-0.3,0.8-0.8,0.8S6.3,37.4,6.3,37v-8c0-0.3,0.2-0.6,0.5-0.7c0.3-0.1,0.7,0,0.8,0.3l3.6,5.8V29c0-0.4,0.3-0.8,0.8-0.8s0.8,0.3,0.8,0.8v8c0,0.3-0.2,0.6-0.5,0.7C12.1,37.7,12.1,37.8,12,37.8z"/>
<path d="M41,37.8h-5c-0.4,0-0.8-0.3-0.8-0.8v-8c0-0.4,0.3-0.8,0.8-0.8h5c0.4,0,0.8,0.3,0.8,0.8s-0.3,0.8-0.8,0.8h-4.3V32H41c0.4,0,0.8,0.3,0.8,0.8s-0.3,0.8-0.8,0.8h-4.3v2.7H41c0.4,0,0.8,0.3,0.8,0.8S41.4,37.8,41,37.8z"/>
<path d="M18.7,37.8c-0.3,0-0.6-0.2-0.7-0.5l-2.7-8c-0.1-0.4,0.1-0.8,0.5-1c0.4-0.1,0.8,0.1,1,0.5l2,5.7l1.6-5.7c0.1-0.4,0.5-0.6,0.9-0.5c0.4,0.1,0.6,0.5,0.5,0.9l-2.3,8C19.4,37.5,19.1,37.7,18.7,37.8C18.7,37.8,18.7,37.8,18.7,37.8z"/>
<path d="M32,37.8c-0.4,0-0.8-0.3-0.8-0.8v-5.8L29.1,34c-0.3,0.4-0.9,0.4-1.2,0l-2.2-2.8V37c0,0.4-0.3,0.8-0.8,0.8s-0.8-0.3-0.8-0.8v-8c0-0.3,0.2-0.6,0.5-0.7c0.3-0.1,0.6,0,0.8,0.2l2.9,3.7l2.9-3.7c0.2-0.3,0.5-0.4,0.8-0.2c0.3,0.1,0.5,0.4,0.5,0.7v8C32.8,37.4,32.4,37.8,32,37.8z"/>
</svg>
