<?xml version="1.0" encoding="utf-8"?>
<!-- Generator: Adobe Illustrator 19.2.1, SVG Export Plug-In . SVG Version: 6.00 Build 0)  -->
<svg version="1.1" id="Слой_1" xmlns="http://www.w3.org/2000/svg" xmlns:xlink="http://www.w3.org/1999/xlink" x="0px" y="0px"
	 viewBox="0 0 48 48" style="enable-background:new 0 0 48 48;" xml:space="preserve">
<path d="M24.7,22.8h-3.8c-0.4,0-0.8-0.3-0.8-0.8s0.3-0.8,0.8-0.8h3.8c0.7,0,1.3-0.6,1.3-1.3c0-0.7-0.6-1.3-1.2-1.3h-2c-1.5,0-2.7-1.2-2.7-2.7c0-1.5,1.2-2.8,2.8-2.8H26c0.4,0,0.8,0.3,0.8,0.8s-0.3,0.8-0.8,0.8h-3.3c-0.7,0-1.3,0.6-1.3,1.3c0,0.7,0.6,1.2,1.2,1.2h2c1.5,0,2.7,1.2,2.7,2.7C27.5,21.5,26.2,22.8,24.7,22.8z"/>
<path d="M14,22.8h-3.8c-0.4,0-0.8-0.3-0.8-0.8s0.3-0.8,0.8-0.8H14c0.7,0,1.3-0.6,1.3-1.3c0-0.7-0.6-1.3-1.2-1.3h-2c-1.5,0-2.7-1.2-2.7-2.7c0-1.5,1.2-2.8,2.8-2.8h3.3c0.4,0,0.8,0.3,0.8,0.8s-0.3,0.8-0.8,0.8H12c-0.7,0-1.3,0.6-1.3,1.3c0,0.7,0.6,1.2,1.2,1.2h2c1.5,0,2.7,1.2,2.7,2.7C16.8,21.5,15.5,22.8,14,22.8z"/>
<path d="M12,37.8H8.2c-0.4,0-0.8-0.3-0.8-0.8s0.3-0.8,0.8-0.8H12c0.7,0,1.3-0.6,1.3-1.3c0-0.7-0.6-1.3-1.2-1.3h-2c-1.5,0-2.7-1.2-2.7-2.7c0-1.5,1.2-2.8,2.8-2.8h3.3c0.4,0,0.8,0.3,0.8,0.8s-0.3,0.8-0.8,0.8H10c-0.7,0-1.3,0.6-1.3,1.3c0,0.7,0.6,1.2,1.2,1.2h2c1.5,0,2.7,1.2,2.7,2.7C14.8,36.5,13.5,37.8,12,37.8z"/>
<path d="M36,22.8h-4c-0.4,0-0.8-0.3-0.8-0.8v-8c0-0.4,0.3-0.8,0.8-0.8h4c1.5,0,2.8,1.2,2.8,2.8v4C38.8,21.5,37.5,22.8,36,22.8z M32.8,21.3H36c0.7,0,1.3-0.6,1.3-1.3v-4c0-0.7-0.6-1.3-1.3-1.3h-3.3V21.3z"/>
<path d="M39.6,44.8H8.4c-2.9,0-5.2-2.3-5.2-5.2V8.4c0-2.9,2.3-5.2,5.2-5.2h31.1c2.9,0,5.2,2.3,5.2,5.2v31.1C44.8,42.4,42.4,44.8,39.6,44.8z M8.4,4.8c-2,0-3.7,1.7-3.7,3.7v31.1c0,2,1.7,3.7,3.7,3.7h31.1c2,0,3.7-1.7,3.7-3.7V8.4c0-2-1.7-3.7-3.7-3.7H8.4z"/>
<path d="M16,37.8c-0.1,0-0.2,0-0.3-0.1c-0.4-0.2-0.6-0.6-0.4-1l1.5-3.5c0,0,0,0,0,0l2-4.5c0.1-0.3,0.4-0.5,0.7-0.5c0,0,0,0,0,0c0.3,0,0.6,0.2,0.7,0.5l1.9,4.5c0,0,0,0,0,0l1.6,3.5c0.2,0.4,0,0.8-0.4,1c-0.4,0.2-0.8,0-1-0.4l-1.4-3.1H18l-1.3,3C16.6,37.6,16.3,37.8,16,37.8z M18.7,32.8h1.6l-0.8-1.8L18.7,32.8z"/>
<path d="M32,37.8c-0.1,0-0.2,0-0.3-0.1c-0.4-0.2-0.6-0.6-0.4-1l1.5-3.5c0,0,0,0,0,0l2-4.5c0.1-0.3,0.4-0.5,0.7-0.5c0,0,0,0,0,0c0.3,0,0.6,0.2,0.7,0.5l1.9,4.5c0,0,0,0,0,0l1.6,3.5c0.2,0.4,0,0.8-0.4,1c-0.4,0.2-0.8,0-1-0.4l-1.4-3.1H34l-1.3,3C32.6,37.6,32.3,37.8,32,37.8z M34.7,32.8h1.6l-0.8-1.8L34.7,32.8z"/>
<path d="M27.5,37.8c-0.4,0-0.8-0.3-0.8-0.8v-7.3H24c-0.4,0-0.8-0.3-0.8-0.8s0.3-0.8,0.8-0.8h7c0.4,0,0.8,0.3,0.8,0.8s-0.3,0.8-0.8,0.8h-2.8V37C28.3,37.4,27.9,37.8,27.5,37.8z"/>
</svg>
