<?xml version="1.0" encoding="utf-8"?>
<!-- Generator: Adobe Illustrator 19.2.1, SVG Export Plug-In . SVG Version: 6.00 Build 0)  -->
<svg version="1.1" id="Слой_1" xmlns="http://www.w3.org/2000/svg" xmlns:xlink="http://www.w3.org/1999/xlink" x="0px" y="0px"
	 viewBox="0 0 48 48" style="enable-background:new 0 0 48 48;" xml:space="preserve">
<path d="M42,42.8H20c-1.5,0-2.8-1.2-2.8-2.8v-3.3H6c-0.4,0-0.8-0.3-0.8-0.8s0.3-0.8,0.8-0.8h12c0.4,0,0.8,0.3,0.8,0.8v4c0,0.7,0.6,1.3,1.3,1.3h22c0.7,0,1.3-0.6,1.3-1.3V16c0-1.8-1.5-3.3-3.3-3.3H6c-0.4,0-0.8-0.3-0.8-0.8s0.3-0.8,0.8-0.8h34c2.6,0,4.8,2.1,4.8,4.8v24C44.8,41.5,43.5,42.8,42,42.8z"/>
<path d="M6,42.8c-0.4,0-0.8-0.3-0.8-0.8V8c0-0.7-0.6-1.3-1.3-1.3H2C1.6,6.7,1.2,6.4,1.2,6S1.6,5.2,2,5.2h2c1.5,0,2.8,1.2,2.8,2.8v34C6.7,42.4,6.4,42.8,6,42.8z"/>
<path d="M26,18.7H12c-0.4,0-0.8-0.3-0.8-0.8s0.3-0.8,0.8-0.8h14c0.4,0,0.8,0.3,0.8,0.8S26.4,18.7,26,18.7z"/>
<path d="M37.5,30.8h-5c-0.7,0-1.3-0.6-1.3-1.3v-11c0-0.7,0.6-1.3,1.3-1.3h5c0.7,0,1.3,0.6,1.3,1.3v11C38.8,30.2,38.2,30.8,37.5,30.8z M32.8,29.3h4.5V18.7h-4.5V29.3z"/>
<path d="M17.5,30.8h-5c-0.7,0-1.3-0.6-1.3-1.3v-5c0-0.7,0.6-1.3,1.3-1.3h5c0.7,0,1.3,0.6,1.3,1.3v5C18.7,30.2,18.2,30.8,17.5,30.8z M12.7,29.3h4.5v-4.5h-4.5V29.3z"/>
<path d="M26,24.8h-2c-0.4,0-0.8-0.3-0.8-0.8s0.3-0.8,0.8-0.8h2c0.4,0,0.8,0.3,0.8,0.8S26.4,24.8,26,24.8z"/>
<path d="M26,30.8h-2c-0.4,0-0.8-0.3-0.8-0.8s0.3-0.8,0.8-0.8h2c0.4,0,0.8,0.3,0.8,0.8S26.4,30.8,26,30.8z"/>
<path d="M38,36.8H24c-0.4,0-0.8-0.3-0.8-0.8s0.3-0.8,0.8-0.8h14c0.4,0,0.8,0.3,0.8,0.8S38.4,36.8,38,36.8z"/>
</svg>
