<?xml version="1.0" encoding="utf-8"?>
<!-- Generator: Adobe Illustrator 19.2.1, SVG Export Plug-In . SVG Version: 6.00 Build 0)  -->
<svg version="1.1" id="Слой_1" xmlns="http://www.w3.org/2000/svg" xmlns:xlink="http://www.w3.org/1999/xlink" x="0px" y="0px"
	 viewBox="0 0 48 48" style="enable-background:new 0 0 48 48;" xml:space="preserve">
<path d="M24,40.8c-0.4,0-0.8-0.2-1.1-0.4c-0.3-0.3-0.4-0.7-0.4-1.1c0-0.4,0.1-0.8,0.4-1.1c0.3-0.3,0.7-0.4,1.1-0.4c0.8,0,1.5,0.7,1.5,1.5S24.8,40.8,24,40.8z M24,38.5l0,0.8c0,0,0,0,0,0L24,38.5z"/>
<path d="M38.8,24.8c-0.2,0-0.4-0.1-0.5-0.2c-7.9-7.2-20.7-7.2-28.6,0c-0.3,0.3-0.8,0.3-1.1,0c-0.3-0.3-0.3-0.8,0-1.1c8.4-7.7,22.2-7.8,30.6,0c0.3,0.3,0.3,0.8,0,1.1C39.2,24.7,39,24.8,38.8,24.8z"/>
<path d="M3.2,16.4c-0.2,0-0.4-0.1-0.6-0.3c-0.3-0.3-0.2-0.8,0.1-1.1C14.4,4.7,33.6,4.7,45.3,15c0.3,0.3,0.3,0.7,0.1,1.1c-0.3,0.3-0.7,0.3-1.1,0.1c-11.2-9.9-29.4-9.9-40.6,0C3.5,16.3,3.4,16.4,3.2,16.4z"/>
<path d="M32.8,32.4c-0.2,0-0.4-0.1-0.5-0.2c-4.6-4.6-12-4.6-16.6,0c-0.3,0.3-0.8,0.3-1.1,0s-0.3-0.8,0-1.1c5.2-5.1,13.6-5.1,18.7,0c0.3,0.3,0.3,0.8,0,1.1C33.2,32.3,33,32.4,32.8,32.4z"/>
</svg>
