<?xml version="1.0" encoding="utf-8"?>
<!-- Generator: Adobe Illustrator 19.2.1, SVG Export Plug-In . SVG Version: 6.00 Build 0)  -->
<svg version="1.1" id="Слой_1" xmlns="http://www.w3.org/2000/svg" xmlns:xlink="http://www.w3.org/1999/xlink" x="0px" y="0px"
	 viewBox="0 0 48 48" style="enable-background:new 0 0 48 48;" xml:space="preserve">
<style type="text/css">
	.st0{fill:#FFFFFF;}
</style>
<path class="st0" d="M36.7,42c-1.3,0-2.6-0.5-3.5-1.5l-10-10c-0.3-0.3-0.3-0.8,0-1.1s0.8-0.3,1.1,0l10,10c1.3,1.3,3.6,1.3,4.9,0
	c0.7-0.7,1-1.5,1-2.5s-0.4-1.8-1-2.5l-10-10c-0.3-0.3-0.3-0.8,0-1.1s0.8-0.3,1.1,0l10,10c1.9,1.9,1.9,5.1,0,7.1
	C39.2,41.5,37.9,42,36.7,42z"/>
<path class="st0" d="M10.6,42c-1.2,0-2.4-0.4-3.4-1.3c-1-0.9-1.6-2.2-1.6-3.6c0-1.4,0.5-2.7,1.5-3.6L23.6,17
	c-0.9-3.4,0.1-7.1,2.5-9.5C28.7,4.9,32.5,4,36,5c0.2,0.1,0.4,0.2,0.5,0.3l0.3,0.3c0.2,0.2,0.3,0.5,0.3,0.8c0,0.3-0.1,0.6-0.3,0.8
	L32.1,12l3.6,3.6l4.7-4.7c0.2-0.2,0.5-0.3,0.8-0.3c0,0,0,0,0,0c0.3,0,0.6,0.1,0.8,0.3l0.3,0.3c0.1,0.1,0.2,0.3,0.3,0.5
	c1.1,3.5,0.1,7.3-2.5,9.9c-2.5,2.5-6.1,3.5-9.5,2.5L14.3,40.5C13.3,41.5,11.9,42,10.6,42z M33.1,6.1c-2.2,0-4.3,0.9-5.9,2.4
	c-2.2,2.2-3,5.5-2,8.5c0.1,0.3,0,0.6-0.2,0.8L8.2,34.5c-0.7,0.7-1,1.6-1,2.5c0,1,0.4,1.8,1.1,2.5c1.4,1.3,3.6,1.2,4.9-0.2l16.7-16.7
	c0.2-0.2,0.5-0.3,0.8-0.2c3,0.9,6.3,0.2,8.5-2c2.2-2.2,3-5.3,2.1-8.3l0,0l-5,5c-0.1,0.1-0.3,0.2-0.5,0.2l0,0c-0.2,0-0.4-0.1-0.5-0.2
	l-4.6-4.6c-0.3-0.3-0.3-0.8,0-1.1l5-5l0,0C34.7,6.2,33.9,6.1,33.1,6.1z M41.3,12.2L41.3,12.2L41.3,12.2z M41.5,11.9L41.5,11.9
	C41.5,11.9,41.5,11.9,41.5,11.9z M35.8,6.7C35.8,6.7,35.8,6.7,35.8,6.7L35.8,6.7z M35.4,6.4C35.4,6.4,35.5,6.4,35.4,6.4L35.4,6.4z
	 M35.8,6.2C35.8,6.2,35.8,6.2,35.8,6.2L35.8,6.2z"/>
<path class="st0" d="M13.7,14.8H9.1c-1.2,0-2.2-0.8-2.6-1.9l-1.3-4c0,0,0,0,0,0C4.9,8.2,5.1,7.5,5.6,7l1.1-1.1
	c0.5-0.5,1.2-0.6,1.8-0.4l4,1.3c1.1,0.4,1.9,1.4,1.9,2.6V14C14.4,14.4,14.1,14.8,13.7,14.8z M6.6,8.3l1.3,4c0.2,0.5,0.6,0.9,1.2,0.9
	h3.8V9.4c0-0.5-0.3-1-0.9-1.2L8,6.9c-0.1,0-0.2,0-0.3,0.1L6.6,8.1C6.6,8.2,6.5,8.3,6.6,8.3L6.6,8.3z"/>
<path class="st0" d="M20.7,21.8c-0.2,0-0.4-0.1-0.5-0.2l-7-7c-0.3-0.3-0.3-0.8,0-1.1s0.8-0.3,1.1,0l7,7c0.3,0.3,0.3,0.8,0,1.1
	C21.1,21.7,20.9,21.8,20.7,21.8z"/>
</svg>
