<?xml version="1.0" encoding="utf-8"?>
<!-- Generator: Adobe Illustrator 19.2.1, SVG Export Plug-In . SVG Version: 6.00 Build 0)  -->
<svg version="1.1" id="Слой_1" xmlns="http://www.w3.org/2000/svg" xmlns:xlink="http://www.w3.org/1999/xlink" x="0px" y="0px"
	 viewBox="0 0 24 24" style="enable-background:new 0 0 24 24;" xml:space="preserve">
<path d="M14.8,13H9.2c-0.3,0-0.6-0.3-0.6-0.6s0.3-0.6,0.6-0.6h5.7c0.3,0,0.6,0.3,0.6,0.6S15.2,13,14.8,13z"/>
<path d="M12,15.8c-0.3,0-0.6-0.3-0.6-0.6V9.5c0-0.3,0.3-0.6,0.6-0.6s0.6,0.3,0.6,0.6v5.7C12.6,15.5,12.3,15.8,12,15.8z"/>
<path d="M18.4,23.1H5.6c-2.6,0-4.7-2.1-4.7-4.7V5.6C0.9,3,3,0.9,5.6,0.9h12.7c2.6,0,4.7,2.1,4.7,4.7v12.7C23.1,21,21,23.1,18.4,23.1z M5.6,2.2c-1.9,0-3.5,1.6-3.5,3.5v12.7c0,1.9,1.6,3.5,3.5,3.5h12.7c1.9,0,3.5-1.6,3.5-3.5V5.6c0-1.9-1.6-3.5-3.5-3.5H5.6z"/>
</svg>
