<svg xmlns="http://www.w3.org/2000/svg" viewBox="0 0 40 40">
<path d="M33.4,8.2c-0.4,0-0.8-0.2-1-0.6C32,7,32.1,6.3,32.7,5.9l1.6-1.1c0.6-0.4,1.4-0.2,1.7,0.3s0.2,1.4-0.3,1.7L34.1,8C33.9,8.1,33.6,8.2,33.4,8.2z"/>
<path d="M36.7,16.2H35c-0.7,0-1.3-0.6-1.3-1.3s0.6-1.3,1.3-1.3h1.6c0.7,0,1.3,0.6,1.3,1.3S37.4,16.2,36.7,16.2z"/>
<path d="M6.6,8.2C6.4,8.2,6.1,8.1,5.9,8L4.3,6.9C3.7,6.5,3.6,5.7,4,5.1c0.4-0.6,1.2-0.7,1.7-0.3l1.6,1.1C7.9,6.3,8,7,7.7,7.6C7.4,8,7,8.2,6.6,8.2z"/>
<path d="M5,16.2H3.3c-0.7,0-1.3-0.6-1.3-1.3s0.6-1.3,1.3-1.3H5c0.7,0,1.3,0.6,1.3,1.3S5.6,16.2,5,16.2z"/>
<path d="M20,36.3c-1.7,0-3.3-0.8-4.3-2.2c-0.4-0.6-0.3-1.3,0.3-1.8c0.6-0.4,1.3-0.3,1.8,0.3c0.5,0.7,1.4,1.2,2.3,1.2s1.8-0.4,2.3-1.2c0.4-0.6,1.2-0.7,1.8-0.3c0.6,0.4,0.7,1.2,0.3,1.8C23.3,35.4,21.7,36.3,20,36.3z"/>
<path d="M29.2,30.8C29.2,30.8,29.2,30.8,29.2,30.8H10.8c0,0,0,0,0,0c-1.9,0-3.5-1.1-4.2-2.8c-0.7-1.7-0.3-3.7,1-5l1.8-1.8V16c0-5.9,4.8-10.6,10.6-10.6S30.6,10.2,30.6,16v5.2l1.8,1.8c1.3,1.3,1.7,3.3,1,5C32.7,29.7,31,30.8,29.2,30.8z M10.8,28.3h18.3c0,0,0,0,0,0c0.8,0,1.6-0.5,1.9-1.3c0.3-0.8,0.1-1.7-0.5-2.3l-2.2-2.2c-0.3-0.3-0.4-0.6-0.4-1V16c0-4.5-3.6-8.1-8.1-8.1c-4.5,0-8.1,3.6-8.1,8.1v5.6c0,0.4-0.1,0.7-0.4,1l-2.2,2.2c-0.6,0.6-0.8,1.5-0.5,2.3S10,28.3,10.8,28.3C10.8,28.3,10.8,28.3,10.8,28.3z"/>
</svg>
