<svg xmlns="http://www.w3.org/2000/svg" viewBox="0 0 16 16">
<path d="M10.2,14.8H4.7c-1.9,0-3.4-1.5-3.4-3.4V4.7c0-1.9,1.5-3.4,3.4-3.4h6.7c1.9,0,3.4,1.5,3.4,3.4v5.8c0,0.7-0.3,1.4-0.8,1.9l-1.3,1.3C12,14.4,11.1,14.8,10.2,14.8z M4.7,2.7c-1.1,0-1.9,0.9-1.9,1.9v6.7c0,1.1,0.9,1.9,1.9,1.9h5.6c0.5,0,1-0.2,1.4-0.6l1.3-1.3c0.2-0.2,0.4-0.5,0.4-0.9V4.7c0-1.1-0.9-1.9-1.9-1.9H4.7z"/>
<path d="M10,14.8c-0.4,0-0.8-0.3-0.8-0.8v-2.7c0-1.1,0.9-2.1,2.1-2.1H14c0.4,0,0.8,0.3,0.8,0.8s-0.3,0.8-0.8,0.8h-2.7c-0.3,0-0.6,0.3-0.6,0.6V14C10.8,14.4,10.4,14.8,10,14.8z"/>
<path d="M7.7,9.7c-0.2,0-0.4-0.1-0.5-0.2L6.2,8.5c-0.3-0.3-0.3-0.8,0-1.1s0.8-0.3,1.1,0l0.4,0.4l1-1c0.3-0.3,0.8-0.3,1.1,0s0.3,0.8,0,1.1L8.2,9.5C8.1,9.6,7.9,9.7,7.7,9.7z"/>
</svg>
