<svg xmlns="http://www.w3.org/2000/svg" viewBox="0 0 48 48">
<path d="M23.4,39.7c-0.7,0-1.4-0.2-2-0.7l-16-12.6C4.7,25.8,4.2,25,4.2,24s0.4-1.8,1.2-2.4l16-12.6c1-0.8,2.3-0.9,3.4-0.4c1.1,0.5,1.8,1.7,1.8,2.9v5.8c9.8,1.4,17.2,9.9,17.2,19.9v1.2c0,0.3-0.2,0.6-0.5,0.7c-0.3,0.1-0.6,0-0.8-0.2c-4-4.8-9.7-7.6-15.8-7.9v5.7c0,1.2-0.7,2.3-1.8,2.9C24.3,39.6,23.9,39.7,23.4,39.7z M23.4,9.7c-0.4,0-0.7,0.1-1.1,0.4l-16,12.6C6,23,5.7,23.5,5.7,24c0,0.5,0.2,1,0.6,1.3l16,12.6c0.5,0.4,1.2,0.5,1.8,0.2c0.6-0.3,1-0.9,1-1.5v-6.5c0-0.2,0.1-0.4,0.2-0.5c0.1-0.1,0.3-0.2,0.5-0.2c0,0,0,0,0,0c6.2,0.1,12.1,2.6,16.4,7c-0.4-9.1-7.3-16.7-16.5-17.7c-0.4,0-0.7-0.4-0.7-0.7v-6.5c0-0.6-0.4-1.2-1-1.5C23.9,9.8,23.6,9.7,23.4,9.7z"/>
</svg>
