<svg xmlns="http://www.w3.org/2000/svg" viewBox="0 0 40 40">
<path d="M15.6,27.6c-2.1,0-4-1.5-4.5-3.6L8.6,11.9c-0.1-0.4,0-0.8,0.3-1s0.6-0.5,1-0.5h21c0.9,0,1.7,0.4,2.3,1.1s0.8,1.6,0.5,2.5l-2.2,9c-0.5,1.9-2.1,3.3-4,3.4l-11.4,1.1C15.9,27.6,15.8,27.6,15.6,27.6z M11.3,12.9l2.2,10.6h0c0.2,1,1.2,1.7,2.2,1.6L27.2,24c0.9-0.1,1.6-0.7,1.8-1.6l2.2-9c0-0.2,0-0.3-0.1-0.4c0-0.1-0.2-0.2-0.3-0.2H11.3z"/>
<path d="M9.8,12.9c-0.6,0-1.1-0.4-1.2-1l-0.9-4H5.8c-0.7,0-1.3-0.6-1.3-1.3s0.6-1.3,1.3-1.3h2.9c0.6,0,1.1,0.4,1.2,1l1.1,5c0.1,0.7-0.3,1.3-1,1.5C10,12.9,9.9,12.9,9.8,12.9z"/>
<path d="M28.5,34.6c-1,0-1.9-0.8-1.9-1.9c0-0.5,0.2-1,0.5-1.3c0.4-0.4,0.8-0.5,1.3-0.5c1,0,1.9,0.8,1.9,1.9C30.4,33.7,29.5,34.6,28.5,34.6z M28.5,32.1c-0.4,0-0.6,0.3-0.6,0.6c0,0.4,0.3,0.6,0.6,0.6c0.2,0,0.3-0.1,0.5-0.2c0.1-0.1,0.2-0.3,0.2-0.5C29.2,32.4,28.9,32.1,28.5,32.1z"/>
<path d="M14.5,34.6c-0.5,0-1-0.2-1.3-0.6c-0.4-0.4-0.5-0.8-0.5-1.3c0-0.5,0.2-0.9,0.5-1.3c0.4-0.4,0.8-0.6,1.3-0.6c1,0,1.9,0.8,1.9,1.9C16.4,33.7,15.5,34.6,14.5,34.6z M14.5,32.1c-0.4,0-0.6,0.3-0.6,0.6c0,0.4,0.3,0.6,0.6,0.6c0.2,0,0.3-0.1,0.5-0.2c0.1-0.1,0.2-0.3,0.2-0.5c0-0.1-0.1-0.3-0.2-0.4C14.8,32.2,14.7,32.1,14.5,32.1z"/>
</svg>
