<svg xmlns="http://www.w3.org/2000/svg" viewBox="0 0 24 25">
<path d="M9.6,12.8c-0.2,0-0.4-0.1-0.5-0.2c-0.3-0.3-0.3-0.8,0-1.1l1.9-1.9L9.1,7.7C8.8,7.4,8.8,7,9.1,6.7s0.8-0.3,1.1,0l2.4,2.4c0.3,0.3,0.3,0.8,0,1.1l-2.4,2.4C10,12.7,9.8,12.8,9.6,12.8z"/>
<path d="M14.4,17.6c-0.2,0-0.4-0.1-0.5-0.2l-2.4-2.4c-0.1-0.1-0.2-0.3-0.2-0.5s0.1-0.4,0.2-0.5l2.4-2.4c0.3-0.3,0.8-0.3,1.1,0s0.3,0.8,0,1.1l-1.9,1.9l1.9,1.9c0.3,0.3,0.3,0.8,0,1.1C14.8,17.5,14.6,17.6,14.4,17.6z"/>
<path d="M12,21.8c-2.6,0-5.1-1-6.9-2.9c-1.8-1.8-2.9-4.3-2.9-6.9s1-5.1,2.9-6.9S9.4,2.2,12,2.2s5.1,1,6.9,2.9c2.8,2.8,3.6,7,2.1,10.7c-0.5,1.2-1.2,2.2-2.1,3.1c-0.3,0.3-0.8,0.3-1.1,0s-0.3-0.8,0-1.1c0.8-0.8,1.4-1.6,1.8-2.6c1.3-3.1,0.6-6.7-1.8-9c-1.6-1.6-3.6-2.4-5.8-2.4c-2.2,0-4.3,0.9-5.8,2.4S3.7,9.8,3.7,12c0,2.2,0.9,4.3,2.4,5.8c1.6,1.6,3.6,2.4,5.8,2.4c0.4,0,0.8,0.3,0.8,0.8S12.4,21.8,12,21.8z"/>
<path d="M16.3,24.4c-0.4,0-0.8-0.3-0.8-0.8V19c0-0.4,0.3-0.8,0.8-0.8s0.8,0.3,0.8,0.8v4.7C17.1,24.1,16.7,24.4,16.3,24.4z"/>
<path d="M18.7,22.1H14c-0.4,0-0.8-0.3-0.8-0.8s0.3-0.8,0.8-0.8h4.7c0.4,0,0.8,0.3,0.8,0.8S19.1,22.1,18.7,22.1z"/>
</svg>
