<svg width="32" height="32" viewBox="0 0 32 32" fill="none" xmlns="http://www.w3.org/2000/svg">
<path fill-rule="evenodd" clip-rule="evenodd" d="M13.508 18.492C11.948 16.932 10.772 15.1853 9.99066 13.4133C9.82666 13.0387 9.92266 12.6 10.212 12.3107L11.304 11.2187C12.1987 10.324 12.1987 9.05868 11.4173 8.27734L9.85333 6.71334C8.81199 5.67201 7.12399 5.67201 6.08266 6.71334L5.21333 7.58134C4.22533 8.56934 3.81333 9.99468 4.07999 11.408C4.73866 14.892 6.76266 18.7067 10.028 21.972C13.2933 25.2373 17.108 27.2613 20.592 27.92C22.0053 28.1867 23.4307 27.7747 24.4187 26.7867L25.2867 25.9187C26.328 24.8773 26.328 23.1893 25.2867 22.148L23.7227 20.584C22.9413 19.8027 21.6747 19.8027 20.8947 20.584L19.6907 21.7893C19.4013 22.0787 18.9627 22.176 18.588 22.0107C16.816 21.228 15.068 20.0507 13.508 18.492Z" stroke="white" stroke-width="1.5" stroke-linecap="round" stroke-linejoin="round"/>
<path d="M28 12V4H20" stroke="white" stroke-width="1.5" stroke-linecap="round" stroke-linejoin="round"/>
<path d="M20 12L28 4" stroke="white" stroke-width="1.5" stroke-linecap="round" stroke-linejoin="round"/>
</svg>
