<?xml version="1.0" encoding="utf-8"?>
<!-- Generator: Adobe Illustrator 19.2.1, SVG Export Plug-In . SVG Version: 6.00 Build 0)  -->
<svg version="1.1" id="Слой_1" xmlns="http://www.w3.org/2000/svg" xmlns:xlink="http://www.w3.org/1999/xlink" x="0px" y="0px"
	 viewBox="0 0 19 19" style="enable-background:new 0 0 19 19;" xml:space="preserve">
<path d="M12.2,17H6.4c-1.4,0-2.5-1.1-2.5-2.5V4.6c0-0.4,0.3-0.7,0.7-0.7s0.7,0.3,0.7,0.7v9.9c0,0.6,0.4,1,1,1h5.8c0.6,0,1-0.5,1-1V4.6c0-0.4,0.3-0.7,0.7-0.7s0.7,0.3,0.7,0.7v9.9C14.7,15.9,13.6,17,12.2,17z"/>
<path d="M15.1,5.4H3.5c-0.4,0-0.7-0.3-0.7-0.7s0.3-0.7,0.7-0.7h11.6c0.4,0,0.7,0.3,0.7,0.7S15.5,5.4,15.1,5.4z"/>
<path d="M10.8,3.1H7.8C7.3,3.1,7,2.7,7,2.3s0.3-0.7,0.7-0.7h3.1c0.4,0,0.7,0.3,0.7,0.7S11.3,3.1,10.8,3.1z"/>
<path d="M10.8,13.9c-0.4,0-0.7-0.3-0.7-0.7V7.8c0-0.4,0.3-0.7,0.7-0.7s0.7,0.3,0.7,0.7v5.4C11.6,13.6,11.3,13.9,10.8,13.9z"/>
<path d="M7.8,13.9c-0.4,0-0.7-0.3-0.7-0.7V7.8C7,7.3,7.3,7,7.8,7s0.7,0.3,0.7,0.7v5.4C8.5,13.6,8.2,13.9,7.8,13.9z"/>
</svg>
