<?xml version="1.0" encoding="utf-8"?>
<!-- Generator: Adobe Illustrator 19.2.1, SVG Export Plug-In . SVG Version: 6.00 Build 0)  -->
<svg version="1.1" id="Слой_1" xmlns="http://www.w3.org/2000/svg" xmlns:xlink="http://www.w3.org/1999/xlink" x="0px" y="0px"
	 viewBox="0 0 30 30" style="enable-background:new 0 0 30 30;" xml:space="preserve">
<path d="M13,18c-0.2,0-0.3-0.1-0.4-0.2c-0.2-0.2-0.2-0.6,0-0.9l4-4c0.2-0.2,0.6-0.2,0.9,0c0.2,0.2,0.2,0.6,0,0.9l-4,4C13.3,17.9,13.2,18,13,18z"/>
<path d="M17,18c-0.2,0-0.3-0.1-0.4-0.2l-4-4c-0.2-0.2-0.2-0.6,0-0.9c0.2-0.2,0.6-0.2,0.9,0l4,4c0.2,0.2,0.2,0.6,0,0.9C17.3,17.9,17.2,18,17,18z"/>
<path d="M15,28.7c-1.2,0-2.4-0.5-3.3-1.4l-9-9c-1.8-1.8-1.8-4.8,0-6.6l9-9c1.8-1.8,4.8-1.8,6.6,0l9,9c1.8,1.8,1.8,4.8,0,6.6l-9,9C17.4,28.2,16.2,28.7,15,28.7z M15,2.5c-0.9,0-1.8,0.3-2.5,1l-9,9c-1.4,1.4-1.4,3.6,0,4.9l9,9c1.4,1.4,3.6,1.4,4.9,0l9-9c1.4-1.4,1.4-3.6,0-4.9l-9-9C16.8,2.9,15.9,2.5,15,2.5z"/>
</svg>
