<?xml version="1.0" encoding="utf-8"?>
<!-- Generator: Adobe Illustrator 19.2.1, SVG Export Plug-In . SVG Version: 6.00 Build 0)  -->
<svg version="1.1" id="Слой_1" xmlns="http://www.w3.org/2000/svg" xmlns:xlink="http://www.w3.org/1999/xlink" x="0px" y="0px"
	 viewBox="0 0 32 32" style="enable-background:new 0 0 32 32;" xml:space="preserve">
<path d="M16,21c-1.3,0-2.6-0.5-3.5-1.5c-1.9-1.9-2-5.1,0-7.1c0.9-0.9,2.2-1.5,3.5-1.5s2.6,0.5,3.5,1.5c1.9,1.9,1.9,5.1,0,7.1C18.6,20.5,17.3,21,16,21z M16,13c-0.8,0-1.6,0.3-2.1,0.9c-1.2,1.2-1.2,3.1,0,4.2c1.2,1.2,3.1,1.2,4.2,0s1.2-3.1,0-4.2c0,0,0,0,0,0C17.6,13.3,16.8,13,16,13z"/>
<path d="M16,26.3c-5.3,0-10.1-2.9-12.3-7.3C3.2,18.1,3,17,3,16c0-1,0.2-2,0.7-3c2.2-4.5,7-7.3,12.3-7.3c5.3,0,10.1,2.9,12.3,7.3c0.5,0.9,0.7,2,0.7,3c0,1-0.2,2.1-0.7,3C26.1,23.5,21.3,26.3,16,26.3z M16,7.7c-4.5,0-8.7,2.4-10.5,6.2C5.2,14.6,5,15.3,5,16s0.2,1.4,0.5,2.1c1.8,3.8,6,6.2,10.5,6.2c4.5,0,8.7-2.4,10.5-6.2c0.3-0.7,0.5-1.4,0.5-2.1c0-0.7-0.2-1.4-0.5-2.1C24.7,10.1,20.5,7.7,16,7.7z"/>
</svg>
