<?xml version="1.0" encoding="utf-8"?>
<!-- Generator: Adobe Illustrator 19.2.1, SVG Export Plug-In . SVG Version: 6.00 Build 0)  -->
<svg version="1.1" id="Слой_1" xmlns="http://www.w3.org/2000/svg" xmlns:xlink="http://www.w3.org/1999/xlink" x="0px" y="0px"
	 viewBox="0 0 28 28" style="enable-background:new 0 0 28 28;" xml:space="preserve">
<path d="M14,18.8c-1.2,0-2.5-0.5-3.4-1.4c-0.9-0.9-1.4-2.1-1.4-3.4s0.5-2.5,1.4-3.4c0.9-0.9,2.1-1.4,3.4-1.4
	s2.5,0.5,3.4,1.4l0,0l0,0c1.9,1.9,1.9,5,0,6.8C16.5,18.4,15.2,18.8,14,18.8z M14,10.5c-0.9,0-1.8,0.4-2.5,1c-0.7,0.7-1,1.5-1,2.5
	s0.4,1.8,1,2.5c1.4,1.4,3.6,1.4,4.9,0c1.4-1.4,1.4-3.6,0-4.9l0,0C15.8,10.9,14.9,10.5,14,10.5z"/>
<path d="M18,28c-0.7,0-1.5-0.3-2-0.8l-1-1c-0.6-0.6-1.5-0.6-2.1,0l-1,1c-0.8,0.7-1.9,1-2.9,0.6l-1-0.3
	c-1.2-0.4-1.9-1.5-1.9-2.7v-1.4c0-0.8-0.7-1.5-1.5-1.5l-1.4,0c-1.1,0-2-0.6-2.5-1.6l-0.5-0.9C-0.2,18.2,0,16.9,0.8,16l1-1
	c0.6-0.6,0.6-1.5,0-2.1l-1-1C0.1,11.1-0.1,10,0.2,9l0.3-1C0.9,6.9,2,6.1,3.3,6.1h1.4c0.8,0,1.5-0.7,1.5-1.5l0-1.4
	c0-1.1,0.6-2,1.6-2.5l0.9-0.5C9.8-0.2,11.1,0,12,0.8l1,1c0.6,0.6,1.5,0.6,2.1,0l1-1c0.8-0.7,1.9-1,2.9-0.6l1,0.3
	c1.2,0.4,1.9,1.5,1.9,2.7v1.4c0,0.8,0.6,1.5,1.5,1.5l1.4,0c1.1,0,2,0.6,2.5,1.6l0.5,0.9c0.5,1.1,0.3,2.4-0.5,3.3l-1,1
	c-0.6,0.6-0.6,1.5,0,2.1l1,1c0.7,0.8,1,1.9,0.6,2.9l-0.3,1c-0.4,1.2-1.5,1.9-2.7,1.9h-1.4c-0.8,0-1.5,0.7-1.5,1.5l0,1.4
	c0,1.1-0.6,2-1.6,2.5l-0.9,0.5C18.9,27.9,18.5,28,18,28z M14,24.4c0.7,0,1.5,0.3,2,0.8l1,1c0.5,0.5,1.2,0.6,1.7,0.3l0.9-0.5
	c0.5-0.3,0.8-0.8,0.8-1.3l0-1.4c0-1.5,1.3-2.8,2.8-2.8h1.4c0.7,0,1.2-0.4,1.4-1l0.3-1c0.2-0.5,0-1.1-0.3-1.5l-1-1
	c-1.1-1.1-1-2.9,0-4l1-1c0.5-0.5,0.6-1.2,0.3-1.7L26,8.4c-0.3-0.5-0.8-0.8-1.3-0.8l-1.4,0c-1.5,0-2.8-1.3-2.8-2.8V3.3
	c0-0.7-0.4-1.2-1-1.4l-1-0.3c0,0,0,0,0,0c-0.5-0.2-1.1,0-1.5,0.3l-1,1c-1.1,1.1-2.9,1-4,0l-1-1c-0.5-0.5-1.2-0.6-1.7-0.3L8.4,2
	C7.9,2.2,7.5,2.7,7.5,3.3l0,1.4c0,1.5-1.3,2.8-2.8,2.8H3.3c-0.7,0-1.2,0.4-1.4,1l-0.3,1c-0.2,0.5,0,1.1,0.3,1.5l1,1
	c1.1,1.1,1,2.9,0,4l-1,1c-0.5,0.5-0.6,1.2-0.3,1.7L2,19.6c0.3,0.5,0.8,0.8,1.3,0.8l1.4,0c1.5,0,2.8,1.3,2.8,2.8v1.4
	c0,0.7,0.4,1.2,1,1.4l1,0.3c0.5,0.2,1.1,0,1.5-0.3l1-1C12.5,24.7,13.3,24.4,14,24.4z"/>
</svg>
