<svg xmlns="http://www.w3.org/2000/svg" viewBox="0 0 24 24">
<g>
	<path d="M12,24C5.4,24,0,18.6,0,12C0,5.4,5.4,0,12,0c6.6,0,12,5.4,12,12C24,18.6,18.6,24,12,24z M12,1.7C6.3,1.7,1.7,6.3,1.7,12c0,5.7,4.6,10.3,10.3,10.3c5.7,0,10.3-4.6,10.3-10.3C22.3,6.3,17.7,1.7,12,1.7z"/>
	<path d="M13.8,19H10c-0.2,0-0.3-0.1-0.3-0.2v-0.9c0-0.2,0.1-0.2,0.3-0.2h1.1v-7.2H10c-0.2,0-0.3-0.1-0.3-0.2V9.4c0-0.2,0.1-0.2,0.3-0.2h2.5c0.2,0,0.2,0.1,0.2,0.2v8.3h1.1c0.2,0,0.3,0.1,0.3,0.2v0.9C14.1,18.9,14,19,13.8,19z M12.7,6.2C12.9,6.4,13,6.7,13,7s-0.1,0.6-0.3,0.8c-0.2,0.2-0.5,0.3-0.8,0.3S11.3,8,11.1,7.8c-0.2-0.2-0.3-0.5-0.3-0.8s0.1-0.6,0.3-0.8c0.2-0.2,0.5-0.3,0.8-0.3S12.5,6,12.7,6.2z"/>
</g>
</svg>
