<svg xmlns="http://www.w3.org/2000/svg" viewBox="0 0 32 32">
<path d="M22,19.6c-0.3,0-0.5-0.1-0.7-0.3c-0.4-0.4-0.4-1,0-1.4l2.9-2.9c1.9-2,1.9-5.2-0.1-7.1c-2-2-5.2-2-7.1,0l-2.9,2.9c-0.4,0.4-1,0.4-1.4,0s-0.4-1,0-1.4l2.9-2.9c2.8-2.7,7.2-2.7,9.9,0.1c2.7,2.7,2.8,7.2,0.1,9.9l-2.9,2.9C22.5,19.5,22.2,19.6,22,19.6z"/>
<path d="M12.4,20.6c-0.3,0-0.5-0.1-0.7-0.3c-0.4-0.4-0.4-1,0-1.4l7.1-7.1c0.4-0.4,1-0.4,1.4,0s0.4,1,0,1.4l-7.1,7.1C13,20.5,12.7,20.6,12.4,20.6z"/>
<path d="M11.5,27.6c-1.8,0-3.6-0.7-5-2.1c-2.7-2.7-2.8-7.2-0.1-9.9l2.9-2.9c0.4-0.4,1-0.4,1.4,0s0.4,1,0,1.4L7.8,17c-1.9,2-1.9,5.2,0.1,7.1c2,2,5.2,2,7.1,0l2.9-2.9c0.4-0.4,1-0.4,1.4,0s0.4,1,0,1.4l-2.9,2.9C15,26.9,13.2,27.6,11.5,27.6z"/>
</svg>
