<svg width="40" height="40" viewBox="0 0 40 40" fill="none" xmlns="http://www.w3.org/2000/svg">
<path d="M20.0001 18.75C16.5786 18.75 13.7784 15.9511 13.7784 12.5283H11.2784C11.2784 17.3322 15.1982 21.25 20.0001 21.25V18.75ZM13.7784 12.5283C13.7784 9.09324 16.5908 6.25 20.0001 6.25V3.75C15.186 3.75 11.2784 7.73676 11.2784 12.5283H13.7784ZM20.0001 6.25C23.4216 6.25 26.2217 9.04887 26.2217 12.4717H28.7217C28.7217 7.6678 24.8019 3.75 20.0001 3.75V6.25ZM26.2217 12.4717C26.2217 15.9068 23.4093 18.75 20.0001 18.75V21.25C24.8142 21.25 28.7217 17.2632 28.7217 12.4717H26.2217ZM31.6667 33.75H8.33341V36.25H31.6667V33.75ZM8.33341 33.75C8.1071 33.75 7.91675 33.5596 7.91675 33.3333H5.41675C5.41675 34.9404 6.72639 36.25 8.33341 36.25V33.75ZM7.91675 33.3333V31.6667H5.41675V33.3333H7.91675ZM7.91675 31.6667C7.91675 28.6904 10.3571 26.25 13.3334 26.25V23.75C8.97639 23.75 5.41675 27.3096 5.41675 31.6667H7.91675ZM13.3334 26.25H26.6667V23.75H13.3334V26.25ZM26.6667 26.25C29.6431 26.25 32.0834 28.6904 32.0834 31.6667H34.5834C34.5834 27.3096 31.0238 23.75 26.6667 23.75V26.25ZM32.0834 31.6667V33.3333H34.5834V31.6667H32.0834ZM32.0834 33.3333C32.0834 33.5596 31.8931 33.75 31.6667 33.75V36.25C33.2738 36.25 34.5834 34.9404 34.5834 33.3333H32.0834Z"/>
</svg>
