<svg xmlns="http://www.w3.org/2000/svg" viewBox="0 0 18 18">
<path d="M13.9,9.4H4.1c-0.3,0-0.6-0.3-0.6-0.6s0.3-0.6,0.6-0.6h9.8c0.3,0,0.6,0.3,0.6,0.6S14.2,9.4,13.9,9.4z"/>
<path d="M12.4,12.6H5.6c-1.1,0-2.1-0.9-2.1-2.1V3c0-0.7,0.6-1.3,1.3-1.3h8.3c0.7,0,1.3,0.6,1.3,1.3v7.5C14.5,11.7,13.5,12.6,12.4,12.6z M4.9,2.8C4.8,2.8,4.7,2.9,4.7,3v7.5c0,0.5,0.4,0.9,0.9,0.9h6.8c0.5,0,0.9-0.4,0.9-0.9V3c0-0.1-0.1-0.2-0.2-0.2H4.9z"/>
<path d="M9.2,17.1H8.8c-1.1,0-2.1-0.9-2.1-2.1v-3c0-0.3,0.3-0.6,0.6-0.6s0.6,0.3,0.6,0.6v3c0,0.5,0.4,0.9,0.9,0.9h0.3c0.5,0,0.9-0.4,0.9-0.9v-3c0-0.3,0.3-0.6,0.6-0.6s0.6,0.3,0.6,0.6v3C11.2,16.1,10.3,17.1,9.2,17.1z"/>
</svg>
