<svg xmlns="http://www.w3.org/2000/svg" viewBox="0 0 18 18">
<path d="M10.6,7.7c-0.3,0-0.6-0.3-0.6-0.6V5.8H7.9v1.3c0,0.3-0.3,0.6-0.6,0.6S6.8,7.4,6.8,7.1V5.7c0-0.6,0.5-1,1-1h2.3c0.6,0,1,0.5,1,1v1.4C11.2,7.4,11,7.7,10.6,7.7z"/>
<path d="M12.3,7.7H5.7c-0.3,0-0.6-0.3-0.6-0.6s0.3-0.6,0.6-0.6h6.7c0.3,0,0.6,0.3,0.6,0.6S12.6,7.7,12.3,7.7z"/>
<path d="M10.5,13.3h-3c-0.8,0-1.4-0.6-1.5-1.4L5.7,7.2c0-0.3,0.2-0.6,0.5-0.6c0.3,0,0.6,0.2,0.6,0.5l0.4,4.8c0,0.2,0.2,0.3,0.4,0.3h3c0.2,0,0.4-0.2,0.4-0.3l0.4-4.8c0-0.3,0.3-0.5,0.6-0.5c0.3,0,0.5,0.3,0.5,0.6L12,11.9C11.9,12.7,11.3,13.3,10.5,13.3z"/>
<path d="M12,16.3H6c-2.4,0-4.3-1.9-4.3-4.3V6c0-2.4,1.9-4.3,4.3-4.3h6c2.4,0,4.3,1.9,4.3,4.3v6C16.3,14.4,14.4,16.3,12,16.3z M6,2.8C4.2,2.8,2.8,4.2,2.8,6v6c0,1.8,1.4,3.2,3.2,3.2h6c1.8,0,3.2-1.4,3.2-3.2V6c0-1.8-1.4-3.2-3.2-3.2H6z"/>
</svg>
