<svg xmlns="http://www.w3.org/2000/svg" viewBox="0 0 32 32">
<path d="M6.7,22.3H5.9C4.3,22.3,3,21,3,19.4V5.9C3,4.3,4.3,3,5.9,3h13.5c1.6,0,2.9,1.3,2.9,2.9v0.7c0,0.6-0.4,1-1,1s-1-0.4-1-1V5.9c0-0.5-0.4-0.9-0.9-0.9H5.9C5.4,5,5,5.4,5,5.9v13.5c0,0.5,0.4,0.9,0.9,0.9h0.7c0.6,0,1,0.4,1,1S7.2,22.3,6.7,22.3z"/>
<path d="M26.1,29H12.6c-1.6,0-2.9-1.3-2.9-2.9V12.6c0-1.6,1.3-2.9,2.9-2.9h13.5c1.6,0,2.9,1.3,2.9,2.9v13.5C29,27.7,27.7,29,26.1,29z M12.6,11.7c-0.5,0-0.9,0.4-0.9,0.9v13.5c0,0.5,0.4,0.9,0.9,0.9h13.5c0.5,0,0.9-0.4,0.9-0.9V12.6c0-0.5-0.4-0.9-0.9-0.9H12.6z"/>
<path d="M19.3,23.7c-0.6,0-1-0.4-1-1V16c0-0.6,0.4-1,1-1s1,0.4,1,1v6.7C20.3,23.2,19.9,23.7,19.3,23.7z"/>
<path d="M22.7,20.3H16c-0.6,0-1-0.4-1-1s0.4-1,1-1h6.7c0.6,0,1,0.4,1,1S23.2,20.3,22.7,20.3z"/>
</svg>
