<svg xmlns="http://www.w3.org/2000/svg" viewBox="0 0 24 24">
<path d="M18.3,21.4c-0.7,0-1.5-0.3-2-0.8l-5-5c-0.3-0.3-0.3-0.8,0-1.1c0.3-0.3,0.8-0.3,1.1,0l5,5c0.5,0.5,1.4,0.5,1.9,0c0.3-0.3,0.4-0.6,0.4-1s-0.1-0.7-0.4-1l-5-5c-0.3-0.3-0.3-0.8,0-1.1s0.8-0.3,1.1,0l5,5c1.1,1.1,1.1,2.9,0,4.1C19.8,21.1,19.1,21.4,18.3,21.4z"/>
<path d="M5.3,21.4c-0.7,0-1.4-0.2-1.9-0.8c-0.6-0.5-0.9-1.3-0.9-2c0-0.8,0.3-1.5,0.8-2.1l8.1-8.1c-0.4-1.8,0.1-3.6,1.4-4.9c1.4-1.4,3.4-1.9,5.3-1.3c0.1,0,0.3,0.2,0.4,0.2l0.2,0.2c0.4,0.4,0.4,1,0,1.3L16.6,6l1.3,1.3l2.1-2.1c0.2-0.2,0.4-0.3,0.7-0.3c0,0,0,0,0,0c0.3,0,0.5,0.1,0.7,0.3l0.2,0.2c0.1,0.1,0.2,0.3,0.2,0.4c0.6,1.9,0.1,3.9-1.3,5.3c-1.3,1.3-3.1,1.8-4.9,1.4l-8,8C6.8,21.1,6.1,21.4,5.3,21.4z M16.6,3.4c-1,0-2,0.4-2.7,1.1c-1,1-1.4,2.5-0.9,3.9c0.1,0.3,0,0.6-0.2,0.8l-8.4,8.4c-0.3,0.3-0.4,0.6-0.4,1c0,0.4,0.2,0.7,0.4,1C4.9,20,5.8,20,6.3,19.4l8.3-8.3c0.2-0.2,0.5-0.3,0.8-0.2c1.4,0.4,2.9,0.1,3.9-0.9c0.8-0.8,1.2-2,1.1-3.1l-2,2c-0.3,0.3-0.8,0.3-1.1,0L15,6.5c-0.3-0.3-0.3-0.8,0-1.1l2-2C16.9,3.4,16.7,3.4,16.6,3.4z M21,6.2L21,6.2C21,6.2,21,6.2,21,6.2z"/>
<path d="M6.8,7.8H4.6c-0.8,0-1.4-0.5-1.7-1.2l-0.7-2c-0.2-0.5,0-0.9,0.3-1.3l0.6-0.6c0.3-0.3,0.8-0.5,1.3-0.3l2,0.7C7.1,3.3,7.6,4,7.6,4.7V7C7.6,7.4,7.2,7.8,6.8,7.8z M3.7,4.2l0.6,1.9c0,0.1,0.1,0.2,0.2,0.2h1.5V4.7c0-0.1-0.1-0.2-0.2-0.2L4,3.9L3.7,4.2z"/>
<path d="M10.3,11.3c-0.2,0-0.4-0.1-0.5-0.2L6.3,7.5C6,7.2,6,6.8,6.3,6.5s0.8-0.3,1.1,0l3.5,3.5c0.3,0.3,0.3,0.8,0,1.1C10.7,11.2,10.5,11.3,10.3,11.3z"/>
</svg>
