<svg width="32" height="32" viewBox="0 0 32 32" fill="none" xmlns="http://www.w3.org/2000/svg">
<path d="M11.4039 13.4855C12.7926 14.8742 12.7926 17.1257 11.4039 18.5144C10.0151 19.9031 7.76361 19.9031 6.3749 18.5144C4.9862 17.1257 4.9862 14.8742 6.3749 13.4855C7.76361 12.0968 10.0151 12.0968 11.4039 13.4855" stroke="white" stroke-width="1.5" stroke-linecap="round" stroke-linejoin="round"/>
<path d="M25.6252 6.37487C27.0139 7.76358 27.0139 10.0151 25.6252 11.4038C24.2365 12.7925 21.9849 12.7925 20.5962 11.4038C19.2075 10.0151 19.2075 7.76358 20.5962 6.37487C21.9849 4.98617 24.2365 4.98617 25.6252 6.37487" stroke="white" stroke-width="1.5" stroke-linecap="round" stroke-linejoin="round"/>
<path d="M25.6252 20.5961C27.0139 21.9848 27.0139 24.2364 25.6252 25.6251C24.2365 27.0138 21.9849 27.0138 20.5962 25.6251C19.2075 24.2364 19.2075 21.9848 20.5962 20.5961C21.9849 19.2074 24.2365 19.2074 25.6252 20.5961" stroke="white" stroke-width="1.5" stroke-linecap="round" stroke-linejoin="round"/>
<path d="M12.0533 14.4133L19.9467 10.4667" stroke="white" stroke-width="1.5" stroke-linecap="round" stroke-linejoin="round"/>
<path d="M12.0533 17.5867L19.9467 21.5333" stroke="white" stroke-width="1.5" stroke-linecap="round" stroke-linejoin="round"/>
</svg>
