<svg width="74" height="18" viewBox="0 0 74 18" fill="none" xmlns="http://www.w3.org/2000/svg">
<g clip-path="url(#clip0_49_1314)">
<path d="M17.3878 16.4692H13.2855L12.0306 13.4422H5.19368L4.05031 16.4692H0.015625L6.17967 1.18127H10.5957L17.3878 16.4692ZM8.44384 4.83438L6.20233 10.7744H10.9098L8.44384 4.83438ZM32.2894 1.18127H35.6069V16.4692H31.7958V6.91991L27.6713 11.7165H27.0887L22.9645 6.91991V16.469H19.1534V1.18127H22.4709L27.3798 6.85241L32.2894 1.18127ZM45.2634 1.18127C50.8446 1.18127 53.7134 4.65528 53.7134 8.84706C53.7134 13.2405 50.9342 16.4692 44.8372 16.4692H38.5158V1.18127H45.2634ZM42.3266 13.6672H44.8144C48.6475 13.6672 49.7909 11.0664 49.7909 8.82441C49.7909 6.20149 48.3784 3.98291 44.7695 3.98291H42.3265V13.6672H42.3266ZM61.2954 4.80618L56.4901 0H73.9838V17.4944L69.1785 12.6888V4.80618H61.2954ZM61.2898 5.76924L56.3424 10.7164V17.6416H63.2667L68.2137 12.6944H61.2898V5.76924Z" fill="white"/>
</g>
<defs>
<clipPath id="clip0_49_1314">
<rect width="74" height="17.6416" fill="white"/>
</clipPath>
</defs>
</svg>
