<svg width="57" height="56" viewBox="0 0 57 56" fill="none" xmlns="http://www.w3.org/2000/svg">
<path d="M32.286 16.3979C28.0133 19.4944 26.3877 21.5599 25.793 22.5323C25.9081 22.5323 26.0214 22.5436 26.1366 22.5436C28.3286 22.5436 30.0902 21.2786 31.2495 20.4176L31.8159 19.9966C32.2483 19.6813 32.422 17.9971 32.286 16.3979Z" fill="#EA1C24"/>
<path d="M1.6992 1.6992L0.876033 28.2917L0 0H53.1416C48.0553 1.29328 41.9136 2.85277 37.9922 3.91194C20.9568 8.29399 13.9259 21.5685 13.5143 22.656C13.2085 23.4565 13.3255 23.6151 13.6691 23.955L15.8611 24.0984C17.1859 24.1946 18.5134 23.9516 19.7183 23.3923C21.1406 22.7189 22.5251 21.0336 23.8719 18.3363C24.004 19.8202 24.0563 20.6038 24.0286 20.6868L29.2074 15.7422L29.2338 16.6352L39.7707 7.69738L32.7851 15.7176C32.7984 15.8196 32.8116 15.9442 32.8267 16.0952C32.9132 16.8079 32.9403 17.5266 32.9079 18.2438L39.8595 15.425L33.3893 19.7674C42.1062 18.678 48.161 18.3382 56.0019 18.2362V33.5064C55.4053 32.3962 53.6343 30.1778 53.1699 29.6756C52.8603 29.3584 52.5563 29.0242 52.2165 28.7165C51.5317 28.0694 50.8017 27.4719 50.032 26.9286C49.6318 26.6642 49.2447 26.3792 48.8218 26.145L48.5462 25.9846L48.1969 25.7788L47.5531 25.4597C47.1302 25.2294 46.6808 25.0557 46.2428 24.8631C46.0276 24.763 45.7991 24.6894 45.5782 24.6082L45.2837 24.5025L44.9061 24.3684C44.4568 24.2306 44.0093 24.1079 43.5713 23.9908L42.986 23.8624L42.2535 23.7039L41.6871 23.617L40.9753 23.5075C40.5543 23.4622 40.1427 23.432 39.7443 23.3942L39.6122 23.381L39.446 23.3659H38.0281C37.8393 23.3659 37.6694 23.3659 37.4957 23.3772L37.0464 23.3923L36.5007 23.4112C36.1854 23.4112 35.8871 23.4603 35.6077 23.4811L35.249 23.5132L34.8261 23.5528C34.5844 23.5717 34.3654 23.6151 34.1653 23.6416L33.5328 23.7341L32.9173 23.8247H33.3855L34.1747 23.8115H34.8355L35.164 23.8228L35.6134 23.8417C35.8871 23.8549 36.1798 23.8624 36.4951 23.8851L36.9123 23.9248L37.4674 23.9795L37.9828 24.0361L38.215 24.0739L38.5152 24.1211L38.755 24.1589L39.0646 24.208L39.1874 24.2287L39.3441 24.2533L39.4668 24.2797L39.6254 24.3137C40.003 24.4005 40.3806 24.4798 40.7808 24.5742L41.2962 24.7234L41.9646 24.9122L42.4857 25.101L43.1559 25.3426C43.5486 25.5126 43.9451 25.6806 44.3378 25.8581L44.5908 25.9883L44.9156 26.1564C45.1099 26.2491 45.299 26.3525 45.4819 26.466C45.8596 26.6944 46.2371 26.8984 46.5883 27.157L47.1245 27.5233L47.6343 27.9216C47.9817 28.1746 48.2894 28.4748 48.6104 28.7486C49.2158 29.3093 49.7805 29.9125 50.3001 30.5535C50.5588 30.8556 50.7835 31.1822 51.0138 31.4975C51.1252 31.6542 51.229 31.8147 51.3329 31.9695C51.4367 32.1243 51.5406 32.2773 51.6331 32.4359C51.9943 33.0171 52.3233 33.6178 52.6186 34.2351C53.9814 37.0016 55.1131 39.8762 56.0019 42.8293V56L47.2888 55.73C48.4612 52.696 48.7236 50.1378 48.9389 48.3876C49.3693 45.7085 48.8822 41.0735 47.2888 37.5826C44.0792 31.3786 39.3762 29.9796 32.6605 29.7549C31.1501 29.7058 23.0506 30.1117 17.3167 38.1848C15.9215 40.1502 14.9133 41.2491 16.3142 44.5833C9.62566 40.3944 8.14421 34.0042 11.8699 25.4125C12.1178 24.8333 12.1957 24.1955 12.0945 23.5736C12.0451 23.2643 12.0797 22.9474 12.1946 22.656C16.2066 12.659 23.7246 7.18951 28.4465 4.1536C29.5554 3.45665 30.7047 2.82621 31.8883 2.2656L1.6992 1.6992ZM31.8449 19.9373C32.3226 19.5333 32.3396 17.5924 32.2641 16.4804C28.0821 19.5144 26.4264 21.5421 25.8448 22.4955C25.9581 22.4955 26.0714 22.4955 26.1847 22.4955C28.3502 22.4955 30.0815 21.2211 31.2257 20.3772C31.4522 20.2111 31.6656 20.0581 31.8544 19.9279L31.8449 19.9373Z" fill="white"/>
<path d="M43.1546 35.9099C46.4436 40.1543 47.2573 45.315 45.5958 51.392C45.2371 52.7628 44.7613 54.649 44.5121 55.6477L28.3049 55.1455L41.5365 54.7245C42.5636 52.6608 46.7702 43.3961 43.1546 35.9099Z" fill="white"/>
</svg>
